#N canvas 56 22 243 154 10;
#X obj 126 72 param 3 5;
#X floatatom 43 48 5 0 0 0 - - -;
#X floatatom 126 51 5 0 0 0 - - -;
#X floatatom 43 96 5 0 0 0 - - -;
#X floatatom 126 96 5 0 0 0 - - -;
#X obj 43 72 param 2 4;
#X connect 0 0 4 0;
#X connect 1 0 5 0;
#X connect 2 0 0 0;
#X connect 5 0 3 0;
