#N canvas 5 27 841 747 10;
#X msg 18 13 Hello World;
#X floatatom 471 33 5 0 0 0 - - -;
#X floatatom 314 33 5 0 0 0 - - -;
#X obj 410 99 +;
#X floatatom 408 204 5 0 0 0 - - -;
#X obj 314 102 + 4;
#X floatatom 316 203 5 0 0 0 - - -;
#X text 85 40 base;
#X text 180 27 height;
#X text 200 184 area;
#X floatatom 91 60 5 0 0 0 - - -;
#X floatatom 218 57 5 0 0 0 - - -;
#X floatatom 243 188 5 0 0 0 - - -;
#X obj 151 108 *;
#X obj 151 142 / 2;
#X obj 20 75 print;
#X floatatom 615 30 5 0 0 0 - - -;
#X obj 613 71 trigger f f;
#X obj 618 110 *;
#X floatatom 619 158 5 0 0 0 - - -;
#X obj 133 365 vu 15 120 empty empty -1 -8 0 10 -66577 -1 1 0;
#X obj 483 334 osc~ 440;
#X obj 480 477 dac~;
#X floatatom 483 290 5 0 0 0 - - -;
#X obj 591 463 bng 15 250 50 0 empty empty empty 17 7 0 10 -262144
-1 -1;
#X obj 595 537 print~;
#X obj 485 385 *~ 0.1;
#X connect 0 0 15 0;
#X connect 1 0 3 1;
#X connect 2 0 3 0;
#X connect 2 0 5 0;
#X connect 3 0 4 0;
#X connect 5 0 6 0;
#X connect 10 0 13 0;
#X connect 11 0 13 1;
#X connect 13 0 14 0;
#X connect 14 0 12 0;
#X connect 16 0 17 0;
#X connect 17 0 18 0;
#X connect 17 1 18 1;
#X connect 18 0 19 0;
#X connect 21 0 26 0;
#X connect 23 0 21 0;
#X connect 24 0 25 0;
#X connect 26 0 25 0;
