#N canvas 70 22 606 687 10;
#X obj 92 596 *~;
#X obj 86 654 dac~;
#X obj 469 322 bng 15 250 50 0 empty empty empty 17 7 0 10 -262144
-1 -1;
#X obj 401 393 delay 100;
#X msg 419 433 0 10;
#X msg 517 395 0.5 10;
#X obj 467 477 line~;
#X obj 484 266 tgl 15 0 empty empty empty 17 7 0 10 -262144 -1 -1 0
1;
#X floatatom 435 198 5 0 0 0 - - -;
#X obj 487 299 metro 1000;
#X text 18 13 Degital Signal Processing;
#X text 19 35 Beats Per Minuites;
#X text 440 40 bpm;
#X floatatom 464 41 5 0 0 0 - - -;
#X obj 430 161 /;
#X msg 366 123 60000;
#X obj 398 74 t b f;
#X floatatom 463 119 5 0 0 0 - - -;
#X obj 349 208 bng 15 250 50 0 empty empty empty 17 7 0 10 -262144
-1 -1;
#X obj 323 264 f 0;
#X obj 169 303 + 1;
#X floatatom 175 338 5 0 0 0 - - -;
#X obj 181 368 sel 4;
#X msg 141 403 0;
#X obj 51 342 sel 1;
#X obj 100 390 t b;
#X msg 98 426 440;
#X msg 38 389 880;
#X obj 95 551 osc~ 440;
#X floatatom 228 407 5 0 0 0 - - -;
#X obj 67 457 t f f;
#X connect 0 0 1 0;
#X connect 0 0 1 1;
#X connect 2 0 5 0;
#X connect 2 0 3 0;
#X connect 2 0 18 0;
#X connect 3 0 4 0;
#X connect 4 0 6 0;
#X connect 5 0 6 0;
#X connect 6 0 0 1;
#X connect 7 0 9 0;
#X connect 8 0 9 1;
#X connect 9 0 2 0;
#X connect 13 0 16 0;
#X connect 14 0 8 0;
#X connect 15 0 14 0;
#X connect 16 0 15 0;
#X connect 16 1 17 0;
#X connect 17 0 14 1;
#X connect 18 0 19 0;
#X connect 19 0 20 0;
#X connect 20 0 21 0;
#X connect 21 0 22 0;
#X connect 21 0 24 0;
#X connect 22 0 23 0;
#X connect 22 1 29 0;
#X connect 23 0 29 0;
#X connect 24 0 27 0;
#X connect 24 1 25 0;
#X connect 25 0 26 0;
#X connect 26 0 30 0;
#X connect 27 0 30 0;
#X connect 28 0 0 0;
#X connect 29 0 19 1;
#X connect 30 0 28 0;
#X connect 30 1 28 0;
