#N canvas 53 22 374 197 10;
#X obj 28 148 arduino;
#X msg 28 30 devices;
#X msg 75 53 open 2;
#X obj 230 45 metro 500;
#X obj 230 24 tgl 15 0 empty empty empty 17 7 0 10 -262144 -1 -1 0
1;
#X obj 230 81 tgl 15 0 empty empty empty 17 7 0 10 -262144 -1 -1 0
1;
#X msg 102 75 pinMode 11 output;
#X msg 230 101 digital 11 \$1;
#X connect 1 0 0 0;
#X connect 2 0 0 0;
#X connect 3 0 5 0;
#X connect 4 0 3 0;
#X connect 5 0 7 0;
#X connect 6 0 0 0;
#X connect 7 0 0 0;
