#N canvas 54 22 291 341 10;
#X obj 89 113 arduino;
#X msg 89 40 devices;
#X msg 105 64 open 2;
#X obj 89 135 route analog;
#X floatatom 89 180 5 0 0 0 - - -;
#X obj 89 158 route 0;
#X msg 116 88 pinMode 14 analog;
#X obj 89 201 * 880;
#X obj 89 223 osc~;
#X obj 89 278 dac~;
#X obj 89 245 *~ 0.5;
#X connect 0 0 3 0;
#X connect 1 0 0 0;
#X connect 2 0 0 0;
#X connect 3 0 5 0;
#X connect 4 0 7 0;
#X connect 5 0 4 0;
#X connect 6 0 0 0;
#X connect 7 0 8 0;
#X connect 8 0 10 0;
#X connect 10 0 9 0;
#X connect 10 0 9 1;
