#N canvas 54 22 398 475 10;
#X obj 36 55 unpackOSC;
#X obj 36 32 udpreceive 57120;
#X obj 36 77 routeOSC /accxyz;
#X obj 36 100 unpack 0 0 0;
#X floatatom 36 151 5 0 0 0 - - -;
#X floatatom 149 151 5 0 0 0 - - -;
#X floatatom 247 151 5 0 0 0 - - -;
#X obj 152 383 dac~;
#X obj 36 243 osc~;
#X obj 91 284 *~;
#X obj 36 223 line~;
#X obj 36 199 pack 0 50;
#X obj 161 348 osc~;
#X obj 36 175 * 880;
#X obj 149 242 *~ 5;
#X obj 149 222 line~;
#X obj 149 196 pack 0 50;
#X obj 247 223 line~;
#X obj 247 196 pack 0 50;
#X obj 247 172 * 880;
#X obj 149 173 * 220;
#X obj 161 327 +~;
#X connect 0 0 2 0;
#X connect 1 0 0 0;
#X connect 2 0 3 0;
#X connect 3 0 4 0;
#X connect 3 1 5 0;
#X connect 3 2 6 0;
#X connect 4 0 13 0;
#X connect 5 0 20 0;
#X connect 6 0 19 0;
#X connect 8 0 9 0;
#X connect 9 0 21 0;
#X connect 10 0 8 0;
#X connect 11 0 10 0;
#X connect 12 0 7 0;
#X connect 12 0 7 1;
#X connect 13 0 11 0;
#X connect 14 0 9 1;
#X connect 15 0 14 0;
#X connect 16 0 15 0;
#X connect 17 0 21 1;
#X connect 18 0 17 0;
#X connect 19 0 18 0;
#X connect 20 0 16 0;
#X connect 21 0 12 0;
