#N canvas 53 22 362 263 10;
#X declare -lib mrpeach;
#X obj 42 59 unpackOSC;
#X obj 42 37 udpreceive 57120;
#X obj 201 37 import mrpeach;
#X obj 42 112 vsl 15 128 0 1 0 0 empty empty empty 0 -9 0 10 -262144
-1 -1 0 1;
#X obj 42 81 routeOSC /1/fader1;
#X obj 111 206 dac~;
#X obj 123 151 osc~;
#X obj 123 173 *~ 0.5;
#X obj 123 128 * 880;
#X connect 0 0 4 0;
#X connect 1 0 0 0;
#X connect 3 0 8 0;
#X connect 4 0 3 0;
#X connect 6 0 7 0;
#X connect 7 0 5 0;
#X connect 7 0 5 1;
#X connect 8 0 6 0;
