#N canvas 50 22 675 329 10;
#X obj 228 200 arduino;
#X msg 144 79 version;
#X msg 86 101 firmware;
#X msg 42 141 devices;
#X msg 72 183 close;
#X msg 228 76 open \$1;
#X floatatom 228 54 5 0 0 0 - - -;
#X msg 324 137 pinMode \$1 \$2;
#X floatatom 324 94 5 0 0 0 - - -;
#X obj 267 233 print;
#X msg 369 31 output;
#X obj 324 114 pack 0 s;
#X obj 369 85 symbol;
#X msg 325 31 input;
#X msg 419 31 analog;
#X msg 469 31 pwm;
#X msg 500 31 servo;
#X msg 515 128 digital \$1 \$2;
#X obj 515 106 pack 0 0;
#X obj 560 85 tgl 15 0 empty empty empty 17 7 0 10 -262144 -1 -1 0
1;
#X floatatom 515 84 5 0 0 0 - - -;
#X msg 517 229 port \$1 \$2;
#X floatatom 517 186 5 0 0 0 - - -;
#X obj 517 207 pack 0 0;
#X floatatom 562 187 5 0 0 0 - - -;
#X connect 0 1 9 0;
#X connect 1 0 0 0;
#X connect 2 0 0 0;
#X connect 3 0 0 0;
#X connect 4 0 0 0;
#X connect 5 0 0 0;
#X connect 6 0 5 0;
#X connect 7 0 0 0;
#X connect 8 0 11 0;
#X connect 10 0 12 0;
#X connect 11 0 7 0;
#X connect 12 0 11 1;
#X connect 13 0 12 0;
#X connect 14 0 12 0;
#X connect 15 0 12 0;
#X connect 16 0 12 0;
#X connect 17 0 0 0;
#X connect 18 0 17 0;
#X connect 19 0 18 1;
#X connect 20 0 18 0;
#X connect 21 0 0 0;
#X connect 22 0 23 0;
#X connect 23 0 21 0;
#X connect 24 0 23 1;
