#N struct temp float x float y float id float vis;
#N canvas 38 22 1027 477 10;
#N canvas 1068 391 187 109 square 1;
#X scalar temp 20 20 0 1 \;;
#X scalar temp 40 40 1 0 \;;
#X scalar temp 60 60 2 1 \;;
#X restore 355 61 pd square;
#X obj 572 187 pointer;
#X obj 443 83 bng 15 250 50 0 empty empty empty 17 7 0 10 -262144 -1
-1;
#X msg 572 163 traverse pd-square \, bang;
#X msg 572 128 \; pd-square clear;
#X obj 443 106 t b b b;
#X obj 85 107 filledpolygon 900 0 3 0 0 0 20 20 20 20 0;
#X obj 69 135 route displace;
#X obj 69 170 get temp id x y;
#X obj 69 193 pack 0 0 0;
#X obj 69 216 route 0 1 2;
#X obj 69 263 unpack;
#X obj 69 288 phasor~;
#X obj 102 314 / 100;
#X obj 69 314 *~;
#X obj 174 371 dac~;
#X obj 179 263 unpack;
#X obj 179 288 phasor~;
#X obj 212 313 / 100;
#X obj 179 314 *~;
#X obj 283 263 unpack;
#X obj 283 288 phasor~;
#X obj 316 311 / 100;
#X obj 283 311 *~;
#X obj 819 142 pointer;
#X msg 758 89 traverse pd-square;
#X obj 758 142 until;
#X obj 758 113 t b a;
#X msg 758 167 next;
#X obj 819 193 get temp id;
#X obj 819 216 * 30;
#X msg 853 216 0;
#X text 756 72 reset position;
#X obj 69 61 struct temp float x float y float id float vis;
#X obj 85 85 drawnumber -v vis id 7 5 0;
#X obj 443 236 append temp x y id vis;
#X msg 443 212 20 20 0 1 \, 40 40 1 0 \, 60 60 2 1;
#X obj 819 167 t p b p;
#X obj 819 240 set temp x y;
#X obj 443 60 loadbang;
#X connect 1 0 35 4;
#X connect 2 0 5 0;
#X connect 3 0 1 0;
#X connect 5 0 36 0;
#X connect 5 1 3 0;
#X connect 5 2 4 0;
#X connect 7 0 8 0;
#X connect 8 0 9 0;
#X connect 8 1 9 1;
#X connect 8 2 9 2;
#X connect 9 0 10 0;
#X connect 10 0 11 0;
#X connect 10 1 16 0;
#X connect 10 2 20 0;
#X connect 11 0 12 0;
#X connect 11 1 13 0;
#X connect 12 0 14 0;
#X connect 13 0 14 1;
#X connect 14 0 15 0;
#X connect 14 0 15 1;
#X connect 16 0 17 0;
#X connect 16 1 18 0;
#X connect 17 0 19 0;
#X connect 18 0 19 1;
#X connect 19 0 15 0;
#X connect 19 0 15 1;
#X connect 20 0 21 0;
#X connect 20 1 22 0;
#X connect 21 0 23 0;
#X connect 22 0 23 1;
#X connect 23 0 15 0;
#X connect 23 0 15 1;
#X connect 24 0 37 0;
#X connect 24 1 26 1;
#X connect 25 0 27 0;
#X connect 26 0 28 0;
#X connect 27 0 26 0;
#X connect 27 1 24 0;
#X connect 28 0 24 0;
#X connect 29 0 30 0;
#X connect 30 0 38 0;
#X connect 31 0 38 1;
#X connect 33 0 7 0;
#X connect 36 0 35 0;
#X connect 37 0 29 0;
#X connect 37 1 31 0;
#X connect 37 2 38 2;
#X connect 39 0 2 0;
