#N struct temp float x float y array myarray vertex;
#N struct vertex float y;
#N canvas 44 22 617 588 10;
#X obj 198 242 pointer;
#X obj 111 185 t b b b;
#X msg 111 162 bang;
#X obj 111 139 loadbang;
#N canvas 667 340 346 266 graph 1;
#X scalar temp 0 100 \; 0 \; 0 \; 0 \; 0 \; 0 \; 0 \; 0 \; 0 \; 0 \;
0 \; 0 \; 0 \; 0 \; 0 \; 0 \; 0 \; 0 \; 0 \; 0 \; 0 \; 0 \; 0 \; 0
\; 0 \; 0 \; 0 \; 0 \; 0 \; 0 \; 0 \; \;;
#X restore 286 66 pd graph;
#X msg 197 183 \; pd-graph clear;
#X msg 198 220 traverse pd-graph \, bang;
#X obj 110 66 plot myarray 700 3 30 40 10;
#X msg 111 242 0 100;
#X obj 383 389 phasor~;
#X obj 383 187 line;
#X obj 111 300 t b p p;
#X obj 383 277 get vertex y;
#X floatatom 383 231 5 0 0 0 - - -;
#X msg 111 326 30;
#X obj 383 412 *~ 0.2;
#X obj 373 446 dac~;
#X msg 383 164 0 \, 30 1000;
#X obj 383 141 metro 1000;
#X obj 383 121 tgl 15 0 empty empty empty 17 7 0 10 -262144 -1 -1 0
1;
#X obj 383 366 line~;
#X obj 383 343 pack 0 35;
#X obj 383 321 + 220;
#X obj 383 300 * -2;
#X obj 383 210 i;
#X obj 110 43 struct temp float x float y array myarray vertex;
#X obj 111 265 append temp x y;
#X obj 111 348 setsize temp myarray;
#X obj 383 253 element temp myarray;
#N canvas 122 22 362 88 vertex 0;
#X obj 35 -31 struct vertex float y;
#X restore 345 66 pd vertex;
#X msg 115 487 \; pd-graph write mygraph.txt;
#X msg 290 487 \; pd-graph read mygraph.txt;
#X connect 0 0 26 2;
#X connect 1 0 8 0;
#X connect 1 1 6 0;
#X connect 1 2 5 0;
#X connect 2 0 1 0;
#X connect 3 0 2 0;
#X connect 6 0 0 0;
#X connect 8 0 26 0;
#X connect 9 0 15 0;
#X connect 10 0 24 0;
#X connect 11 0 14 0;
#X connect 11 1 27 1;
#X connect 11 2 28 1;
#X connect 12 0 23 0;
#X connect 13 0 28 0;
#X connect 14 0 27 0;
#X connect 15 0 16 0;
#X connect 15 0 16 1;
#X connect 17 0 10 0;
#X connect 18 0 17 0;
#X connect 19 0 18 0;
#X connect 20 0 9 0;
#X connect 21 0 20 0;
#X connect 22 0 21 0;
#X connect 23 0 22 0;
#X connect 24 0 13 0;
#X connect 26 0 11 0;
#X connect 28 0 12 0;
