#N struct temp float x float y array myarray vertex;
#N struct vertex float y;
#N canvas 39 22 501 360 10;
#X obj 119 216 pointer;
#X obj 32 151 t b b b;
#X msg 32 127 bang;
#X obj 32 103 loadbang;
#N canvas 543 115 346 266 graph 1;
#X scalar temp 0 100 \; 0 \; 0 \; 0 \; 0 \; 0 \; 0 \; 0 \; 0 \; 0 \;
0 \; 0 \; 0 \; 0 \; 0 \; 0 \; 0 \; 0 \; 0 \; 0 \; 0 \; 0 \; 0 \; 0
\; 0 \; 0 \; 0 \; 0 \; 0 \; 0 \; 0 \; \;;
#X restore 208 53 pd graph;
#X msg 120 158 \; pd-graph clear;
#X msg 119 193 traverse pd-graph \, bang;
#X obj 32 53 plot myarray 700 3 30 40 10;
#N canvas 123 22 245 67 vertex 0;
#X obj 30 19 struct vertex float y;
#X restore 266 53 pd vertex;
#X msg 32 219 0 100;
#X msg 32 290 30;
#X obj 32 31 struct temp float x float y array myarray vertex;
#X obj 32 241 append temp x y;
#X obj 32 312 setsize temp myarray;
#X obj 32 263 t b p;
#X connect 0 0 12 2;
#X connect 1 0 9 0;
#X connect 1 1 6 0;
#X connect 1 2 5 0;
#X connect 2 0 1 0;
#X connect 3 0 2 0;
#X connect 6 0 0 0;
#X connect 9 0 12 0;
#X connect 10 0 13 0;
#X connect 12 0 14 0;
#X connect 14 0 10 0;
#X connect 14 1 13 1;
