#N struct temp float x float y float id;
#N canvas 37 22 955 421 10;
#N canvas 989 313 287 127 square 1;
#X scalar temp 20 20 0 \;;
#X scalar temp 40 40 1 \;;
#X scalar temp 60 60 2 \;;
#X restore 36 30 pd square;
#X obj 428 127 pointer;
#X obj 323 36 bng 15 250 50 0 empty empty empty 17 7 0 10 -262144 -1
-1;
#X msg 428 105 traverse pd-square \, bang;
#X msg 428 69 \; pd-square clear;
#X obj 323 58 t b b b;
#X obj 38 60 struct temp float x float y float id;
#X obj 323 177 append temp x y id;
#X msg 323 152 20 20 0 \, 40 40 1 \, 60 60 2;
#X obj 38 84 route displace;
#X obj 38 107 get temp id x y;
#X obj 38 137 pack 0 0 0;
#X obj 38 161 route 0 1 2;
#X obj 38 210 unpack;
#X obj 38 233 phasor~;
#X obj 71 254 / 100;
#X obj 38 253 *~;
#X obj 125 347 dac~;
#X obj 131 211 unpack;
#X obj 131 234 phasor~;
#X obj 164 254 / 100;
#X obj 131 255 *~;
#X obj 219 211 unpack;
#X obj 219 234 phasor~;
#X obj 252 255 / 100;
#X obj 219 255 *~;
#X obj 731 101 pointer;
#X msg 635 67 traverse pd-square;
#X obj 635 118 until;
#X obj 635 93 t b a;
#X msg 635 140 next;
#X obj 731 149 get temp id;
#X obj 731 193 set temp x y;
#X obj 731 171 * 30;
#X msg 765 170 0;
#X obj 731 126 t p b p;
#X text 633 46 reset position;
#X obj 362 273 filledpolygon 900 0 3 0 0 0 20 20 20 20 0;
#X obj 626 271 drawnumber id 7 5 0;
#X obj 362 245 tgl 15 0 empty empty empty 17 7 0 10 -262144 -1 -1 0
1;
#X obj 626 243 tgl 15 0 empty empty empty 17 7 0 10 -262144 -1 -1 0
1;
#X connect 1 0 7 3;
#X connect 2 0 5 0;
#X connect 3 0 1 0;
#X connect 5 0 8 0;
#X connect 5 1 3 0;
#X connect 5 2 4 0;
#X connect 6 0 9 0;
#X connect 8 0 7 0;
#X connect 9 0 10 0;
#X connect 10 0 11 0;
#X connect 10 1 11 1;
#X connect 10 2 11 2;
#X connect 11 0 12 0;
#X connect 12 0 13 0;
#X connect 12 1 18 0;
#X connect 12 2 22 0;
#X connect 13 0 14 0;
#X connect 13 1 15 0;
#X connect 14 0 16 0;
#X connect 15 0 16 1;
#X connect 16 0 17 0;
#X connect 16 0 17 1;
#X connect 18 0 19 0;
#X connect 18 1 20 0;
#X connect 19 0 21 0;
#X connect 20 0 21 1;
#X connect 21 0 17 0;
#X connect 21 0 17 1;
#X connect 22 0 23 0;
#X connect 22 1 24 0;
#X connect 23 0 25 0;
#X connect 24 0 25 1;
#X connect 25 0 17 0;
#X connect 25 0 17 1;
#X connect 26 0 35 0;
#X connect 26 1 28 1;
#X connect 27 0 29 0;
#X connect 28 0 30 0;
#X connect 29 0 28 0;
#X connect 29 1 26 0;
#X connect 30 0 26 0;
#X connect 31 0 33 0;
#X connect 33 0 32 0;
#X connect 34 0 32 1;
#X connect 35 0 31 0;
#X connect 35 1 34 0;
#X connect 35 2 32 2;
#X connect 39 0 37 0;
#X connect 40 0 38 0;
