#N struct temp float x float y float id;
#N canvas 53 22 766 405 10;
#N canvas 823 302 287 127 square 1;
#X scalar temp 20 20 0 \;;
#X scalar temp 40 40 1 \;;
#X scalar temp 60 60 2 \;;
#X restore 321 51 pd square;
#X obj 508 217 pointer;
#X obj 403 113 bng 15 250 50 0 empty empty empty 17 7 0 10 -262144
-1 -1;
#X msg 508 195 traverse pd-square \, bang;
#X msg 507 159 \; pd-square clear;
#X obj 403 164 t b b b;
#X obj 56 51 filledpolygon 900 0 3 0 0 0 20 20 20 20 0;
#X obj 38 28 struct temp float x float y float id;
#X obj 403 264 append temp x y id;
#X msg 403 239 20 20 0 \, 40 40 1 \, 60 60 2;
#X obj 38 74 route displace;
#X obj 38 100 get temp id x y;
#X obj 38 131 pack 0 0 0;
#X obj 38 161 route 0 1 2;
#X obj 38 205 unpack;
#X obj 71 253 / 100;
#X obj 38 253 *~;
#X obj 163 343 dac~;
#X obj 170 207 unpack;
#X obj 203 252 / 100;
#X obj 170 252 *~;
#X obj 302 206 unpack;
#X obj 335 251 / 100;
#X obj 302 251 *~;
#X obj 403 90 loadbang;
#X obj 38 228 osc~;
#X obj 170 230 osc~;
#X obj 302 229 osc~;
#X connect 1 0 8 3;
#X connect 2 0 5 0;
#X connect 3 0 1 0;
#X connect 5 0 9 0;
#X connect 5 1 3 0;
#X connect 5 2 4 0;
#X connect 7 0 10 0;
#X connect 9 0 8 0;
#X connect 10 0 11 0;
#X connect 11 0 12 0;
#X connect 11 1 12 1;
#X connect 11 2 12 2;
#X connect 12 0 13 0;
#X connect 13 0 14 0;
#X connect 13 1 18 0;
#X connect 13 2 21 0;
#X connect 14 0 25 0;
#X connect 14 1 15 0;
#X connect 15 0 16 1;
#X connect 16 0 17 0;
#X connect 16 0 17 1;
#X connect 18 0 26 0;
#X connect 18 1 19 0;
#X connect 19 0 20 1;
#X connect 20 0 17 0;
#X connect 20 0 17 1;
#X connect 21 0 27 0;
#X connect 21 1 22 0;
#X connect 22 0 23 1;
#X connect 23 0 17 0;
#X connect 23 0 17 1;
#X connect 24 0 2 0;
#X connect 25 0 16 0;
#X connect 26 0 20 0;
#X connect 27 0 23 0;
