#N struct temp float x float y float h;
#N canvas 55 22 498 397 10;
#N canvas 557 290 122 127 square 1;
#X scalar temp 20 100 -10 \;;
#X restore 68 23 pd square;
#X obj 215 180 pointer;
#X obj 196 106 bng 15 250 50 0 empty empty empty 17 7 0 10 -262144
-1 -1;
#X msg 215 158 traverse pd-square \, bang;
#X msg 267 118 \; pd-square clear;
#X obj 136 23 struct temp float x float y float h;
#X obj 136 45 filledpolygon 900 0 3 0 0 0 h 20 h 20 0;
#X obj 196 128 t b b b;
#X obj 103 212 append temp x y h;
#X msg 103 161 20 100 -10;
#X obj 103 257 get temp h;
#X floatatom 103 278 5 0 0 0 - - -;
#X obj 103 235 pointer;
#X obj 23 218 metro 50;
#X obj 23 186 tgl 15 0 empty empty empty 17 7 0 10 -262144 -1 -1 0
1;
#X obj 273 249 abs;
#X obj 273 271 mtof;
#X obj 273 292 osc~;
#X obj 273 313 *~ 0.1;
#X obj 261 343 dac~;
#X obj 196 83 loadbang;
#X connect 1 0 8 3;
#X connect 2 0 7 0;
#X connect 3 0 1 0;
#X connect 7 0 9 0;
#X connect 7 1 3 0;
#X connect 7 2 4 0;
#X connect 8 0 12 0;
#X connect 9 0 8 0;
#X connect 10 0 11 0;
#X connect 11 0 15 0;
#X connect 12 0 10 0;
#X connect 13 0 12 0;
#X connect 14 0 13 0;
#X connect 15 0 16 0;
#X connect 16 0 17 0;
#X connect 17 0 18 0;
#X connect 18 0 19 0;
#X connect 18 0 19 1;
#X connect 20 0 2 0;
