#N struct temp float x float y float h;
#N canvas 54 22 499 302 10;
#N canvas 560 204 173 119 square 1;
#X scalar temp 20 100 -27.496 \;;
#X restore 77 24 pd square;
#X obj 254 187 pointer;
#X obj 187 107 bng 15 250 50 0 empty empty empty 17 7 0 10 -262144
-1 -1;
#X msg 254 164 traverse pd-square \, bang;
#X msg 290 129 \; pd-square clear;
#X obj 152 25 struct temp float x float y float h;
#X obj 152 47 filledpolygon 900 0 3 0 0 0 h 20 h 20 0;
#X obj 187 129 t b b b;
#X obj 155 230 append temp x y h;
#X obj 60 176 adc~;
#X obj 60 247 set temp h;
#X obj 60 196 env~;
#X obj 60 218 * -1;
#X msg 155 207 20 100 -10;
#X obj 187 82 loadbang;
#X connect 1 0 8 3;
#X connect 2 0 7 0;
#X connect 3 0 1 0;
#X connect 7 0 13 0;
#X connect 7 1 3 0;
#X connect 7 2 4 0;
#X connect 8 0 10 1;
#X connect 9 0 11 0;
#X connect 11 0 12 0;
#X connect 12 0 10 0;
#X connect 13 0 8 0;
#X connect 14 0 2 0;
