#N canvas 55 22 586 302 10;
#X obj 173 159 dac~;
#X obj 183 115 vcf~;
#N canvas 0 22 450 300 (subpatch) 0;
#X array riff 110471 float 2;
#X coords 0 1 110471 -1 100 70 1 0 0;
#X restore 391 -64 graph;
#X obj 391 68 soundfiler;
#X obj 391 17 loadbang;
#X obj 155 -66 adc~;
#X obj 23 -69 bng 15 250 50 0 empty empty empty 17 7 0 10 -262144 -1
-1;
#X obj 155 -38 *~;
#X obj 199 -53 tgl 15 0 empty empty audio_in 17 7 0 10 -262144 -1 -1
0 1;
#X obj 110 57 *~ 1;
#X floatatom 131 31 5 0 0 2 gain - -;
#X obj 304 -66 vsl 15 128 0 127 0 0 empty empty empty 0 -9 0 10 -262144
-1 -1 0 1;
#X msg 193 44 \$1 10;
#X obj 193 73 line~;
#X floatatom 221 114 5 0 0 2 Q - -;
#X obj 304 76 * 15;
#X obj 304 101 + 100;
#X msg 391 42 read -resize riff.wav riff;
#X obj 23 -47 tabplay~ riff;
#X obj 83 11 +~;
#X connect 1 0 0 0;
#X connect 1 0 0 1;
#X connect 4 0 17 0;
#X connect 5 0 7 0;
#X connect 6 0 18 0;
#X connect 7 0 19 1;
#X connect 8 0 7 1;
#X connect 9 0 1 0;
#X connect 10 0 9 1;
#X connect 11 0 15 0;
#X connect 12 0 13 0;
#X connect 13 0 1 1;
#X connect 14 0 1 2;
#X connect 15 0 16 0;
#X connect 16 0 12 0;
#X connect 17 0 3 0;
#X connect 18 0 19 0;
#X connect 18 1 6 0;
#X connect 19 0 9 0;
