#N canvas 55 22 695 272 10;
#X obj 264 191 dac~;
#X obj 273 149 vcf~;
#N canvas 0 22 450 300 (subpatch) 0;
#X array riff 110471 float 2;
#X coords 0 1 110471 -1 100 70 1 0 0;
#X restore 457 50 graph;
#X obj 458 180 soundfiler;
#X obj 458 130 loadbang;
#X obj 146 36 adc~;
#X obj 40 40 bng 15 250 50 0 empty empty empty 17 7 0 10 -262144 -1
-1;
#X obj 146 64 *~;
#X obj 88 106 +~;
#X obj 192 49 tgl 15 0 empty empty audio_in 17 7 0 10 -262144 -1 -1
0 1;
#X obj 88 132 *~ 1;
#X floatatom 131 116 5 0 0 1 gain - -;
#X floatatom 335 133 5 0 0 1 Q - -;
#X obj 283 76 osc~;
#X floatatom 283 53 5 0 0 1 wah_freq - -;
#X obj 283 100 *~;
#X obj 283 124 +~;
#X floatatom 335 108 5 0 0 1 center_fq - -;
#X floatatom 335 84 5 0 0 1 depth - -;
#X msg 458 155 read -resize riff.wav riff;
#X obj 40 62 tabplay~ riff;
#X connect 1 0 0 0;
#X connect 1 0 0 1;
#X connect 4 0 19 0;
#X connect 5 0 7 0;
#X connect 6 0 20 0;
#X connect 7 0 8 1;
#X connect 8 0 10 0;
#X connect 9 0 7 1;
#X connect 10 0 1 0;
#X connect 11 0 10 1;
#X connect 12 0 1 2;
#X connect 13 0 15 0;
#X connect 14 0 13 0;
#X connect 15 0 16 0;
#X connect 16 0 1 1;
#X connect 17 0 16 1;
#X connect 18 0 15 1;
#X connect 19 0 3 0;
#X connect 20 0 8 0;
#X connect 20 1 6 0;
