#N canvas 55 22 595 285 10;
#X obj 70 252 dac~;
#X obj 84 165 lop~;
#X obj 84 141 hip~;
#X obj 84 212 bp~;
#X floatatom 183 102 5 0 0 1 HighPass_cutoff - -;
#X floatatom 183 158 5 0 0 1 BandPass_center_freq - -;
#X floatatom 183 186 5 0 0 1 BandPass_Q - -;
#X floatatom 183 130 5 0 0 1 LowPass_cutoff - -;
#N canvas 0 22 450 300 (subpatch) 0;
#X array riff 110471 float 2;
#X coords 0 1 110471 -1 100 70 1 0 0;
#X restore 371 43 graph;
#X obj 372 174 soundfiler;
#X obj 372 124 loadbang;
#X obj 152 36 adc~;
#X obj 20 39 bng 15 250 50 0 empty empty empty 17 7 0 10 -262144 -1
-1;
#X obj 152 63 *~;
#X obj 191 48 tgl 15 0 empty empty audio_in 17 7 0 10 -262144 -1 -1
0 1;
#X msg 372 148 read -resize riff.wav riff;
#X obj 20 60 tabplay~ riff;
#X obj 84 116 +~;
#X connect 1 0 3 0;
#X connect 2 0 1 0;
#X connect 3 0 0 0;
#X connect 3 0 0 1;
#X connect 4 0 2 1;
#X connect 5 0 3 1;
#X connect 6 0 3 2;
#X connect 7 0 1 1;
#X connect 10 0 15 0;
#X connect 11 0 13 0;
#X connect 12 0 16 0;
#X connect 13 0 17 1;
#X connect 14 0 13 1;
#X connect 15 0 9 0;
#X connect 16 0 17 0;
#X connect 16 1 12 0;
#X connect 17 0 2 0;
