#N canvas 54 22 694 350 10;
#X obj 286 298 dac~;
#X obj 299 261 vcf~;
#N canvas 0 22 450 300 (subpatch) 0;
#X array riff 110471 float 2;
#X coords 0 1 110471 -1 100 70 1 0 0;
#X restore 449 26 graph;
#X obj 449 156 soundfiler;
#X obj 449 107 loadbang;
#X obj 170 33 adc~;
#X obj 27 34 bng 15 250 50 0 empty empty empty 17 7 0 10 -262144 -1
-1;
#X obj 170 59 *~;
#X obj 99 111 +~;
#X obj 213 44 tgl 15 0 empty empty audio_in 17 7 0 10 -262144 -1 -1
0 1;
#X obj 99 166 *~ 1;
#X floatatom 143 150 5 0 0 1 gain - -;
#X obj 309 235 line~;
#X floatatom 361 245 5 0 0 1 Q - -;
#X obj 309 69 env~;
#X msg 309 211 \$1 10;
#X floatatom 309 92 5 0 0 0 - - -;
#X obj 309 115 - 50;
#X obj 309 139 clip 0 50;
#X floatatom 309 187 5 0 0 1 Hz. - -;
#X obj 309 163 * 30;
#X msg 449 131 read -resize riff.wav riff;
#X obj 27 57 tabplay~ riff;
#X connect 1 0 0 0;
#X connect 1 0 0 1;
#X connect 4 0 21 0;
#X connect 5 0 7 0;
#X connect 6 0 22 0;
#X connect 7 0 8 1;
#X connect 8 0 10 0;
#X connect 8 0 14 0;
#X connect 9 0 7 1;
#X connect 10 0 1 0;
#X connect 11 0 10 1;
#X connect 12 0 1 1;
#X connect 13 0 1 2;
#X connect 14 0 16 0;
#X connect 15 0 12 0;
#X connect 16 0 17 0;
#X connect 17 0 18 0;
#X connect 18 0 20 0;
#X connect 19 0 15 0;
#X connect 20 0 19 0;
#X connect 21 0 3 0;
#X connect 22 0 8 0;
#X connect 22 1 6 0;
