#N canvas 54 22 794 538 10;
#X obj 250 178 env~ 1024;
#X obj 62 460 *~;
#X obj 50 499 dac~;
#X obj 250 443 line~;
#X floatatom 250 201 5 0 0 0 amp - -;
#X obj 250 224 moses;
#X floatatom 383 191 5 0 0 0 factor - -;
#X floatatom 490 208 5 0 0 0 threshold - -;
#X floatatom 411 289 5 0 0 0 - - -;
#X obj 411 313 + 100;
#X obj 411 337 dbtorms;
#X floatatom 411 361 5 0 0 0 - - -;
#X floatatom 295 366 5 0 0 1 release - -;
#X floatatom 456 362 5 0 0 1 attack - -;
#X obj 176 38 adc~;
#X obj 60 41 bng 15 250 50 0 empty empty empty 17 7 0 10 -262144 -1
-1;
#X obj 176 67 *~;
#X obj 60 100 +~;
#X obj 226 52 tgl 15 0 empty empty audio_in 17 7 0 10 -262144 -1 -1
0 1;
#X obj 60 122 *~ 1;
#X floatatom 140 106 5 0 0 1 gain - -;
#X obj 60 168 delwrite~ comp 24;
#X obj 62 237 delread~ comp 24;
#N canvas 0 22 450 300 (subpatch) 0;
#X array loop 117960 float 2;
#X coords 0 1 117960 -1 100 70 1 0 0;
#X restore 390 42 graph;
#X obj 507 41 loadbang;
#X obj 507 89 soundfiler;
#X msg 507 65 read -resize loop.wav loop;
#X obj 60 63 tabplay~ loop;
#X obj 250 365 t b;
#X obj 411 384 pack 0 5;
#X obj 250 390 pack 1 5;
#X obj 277 250 expr (($f1 - $f3) / $f2) + $f3 - $f1;
#X connect 0 0 4 0;
#X connect 1 0 2 0;
#X connect 1 0 2 1;
#X connect 3 0 1 1;
#X connect 4 0 5 0;
#X connect 5 0 28 0;
#X connect 5 1 31 0;
#X connect 6 0 31 1;
#X connect 7 0 5 1;
#X connect 7 0 31 2;
#X connect 8 0 9 0;
#X connect 9 0 10 0;
#X connect 10 0 11 0;
#X connect 11 0 29 0;
#X connect 12 0 30 1;
#X connect 13 0 29 1;
#X connect 14 0 16 0;
#X connect 15 0 27 0;
#X connect 16 0 17 1;
#X connect 17 0 19 0;
#X connect 18 0 16 1;
#X connect 19 0 0 0;
#X connect 19 0 21 0;
#X connect 20 0 19 1;
#X connect 22 0 1 0;
#X connect 24 0 26 0;
#X connect 26 0 25 0;
#X connect 27 0 17 0;
#X connect 27 1 15 0;
#X connect 28 0 30 0;
#X connect 29 0 3 0;
#X connect 30 0 3 0;
#X connect 31 0 8 0;
