#N canvas 52 22 645 315 10;
#X obj 129 251 dac~;
#X obj 155 32 adc~;
#X obj 27 36 bng 15 250 50 0 empty empty empty 17 7 0 10 -262144 -1
-1;
#X obj 155 56 *~;
#X obj 201 41 tgl 15 0 empty empty audio_in 17 7 0 10 -262144 -1 -1
0 1;
#X obj 27 57 tabplay~ hihat;
#X obj 140 84 +~;
#N canvas 0 22 450 300 (subpatch) 0;
#X array hihat 6549 float 2;
#X coords 0 1 6549 -1 100 70 1 0 0;
#X restore 413 29 graph;
#X obj 413 161 soundfiler;
#X obj 413 110 loadbang;
#X msg 413 136 read -resize hihat.wav hihat;
#X obj 226 126 delwrite~ delay1 1000;
#X floatatom 170 177 5 0 0 2 delay_time - -;
#X obj 226 193 delread~ delay1 500;
#X obj 242 269 *~ 0.5;
#X floatatom 275 246 5 0 0 1 feedback - -;
#X obj 226 101 +~;
#X connect 1 0 3 0;
#X connect 2 0 5 0;
#X connect 3 0 6 1;
#X connect 4 0 3 1;
#X connect 5 0 6 0;
#X connect 6 0 0 0;
#X connect 6 0 0 1;
#X connect 6 0 16 0;
#X connect 9 0 10 0;
#X connect 10 0 8 0;
#X connect 12 0 13 0;
#X connect 13 0 0 0;
#X connect 13 0 0 1;
#X connect 13 0 14 0;
#X connect 14 0 16 1;
#X connect 15 0 14 1;
#X connect 16 0 11 0;
