#N canvas 55 22 733 280 10;
#X obj 112 238 dac~;
#X obj 159 141 +~;
#X obj 312 124 *~ 0.7;
#N canvas 0 22 450 300 (subpatch) 0;
#X array hihat 6549 float 2;
#X coords 0 1 6549 -1 100 70 1 0 0;
#X restore 498 35 graph;
#X obj 498 164 soundfiler;
#X obj 498 116 loadbang;
#X obj 156 26 adc~;
#X obj 18 24 bng 15 250 50 0 empty empty empty 17 7 0 10 -262144 -1
-1;
#X obj 156 50 *~;
#X obj 201 35 tgl 15 0 empty empty audio_in 17 7 0 10 -262144 -1 -1
0 1;
#X msg 498 140 read -resize hihat.wav hihat;
#X obj 18 45 tabplay~ hihat;
#X obj 106 94 +~;
#X obj 159 166 delwrite~ delay1 1000;
#X floatatom 345 99 5 0 1 0 feedback - -;
#X obj 340 221 delread~ delay1 500;
#X obj 159 193 delread~ delay1 250;
#X connect 1 0 13 0;
#X connect 2 0 1 1;
#X connect 5 0 10 0;
#X connect 6 0 8 0;
#X connect 7 0 11 0;
#X connect 8 0 12 1;
#X connect 9 0 8 1;
#X connect 10 0 4 0;
#X connect 11 0 12 0;
#X connect 12 0 1 0;
#X connect 12 0 0 0;
#X connect 12 0 0 1;
#X connect 14 0 2 1;
#X connect 15 0 0 1;
#X connect 15 0 2 0;
#X connect 16 0 0 0;
