#N canvas 54 22 660 304 10;
#X obj 108 229 dac~;
#X obj 198 141 +~;
#X obj 198 194 delread~ delay1 500;
#N canvas 0 22 450 300 (subpatch) 0;
#X array hihat 6549 float 2;
#X coords 0 1 6549 -1 100 70 1 0 0;
#X restore 374 44 graph;
#X obj 375 176 soundfiler;
#X obj 375 125 loadbang;
#X obj 186 40 adc~;
#X obj 34 38 bng 15 250 50 0 empty empty empty 17 7 0 10 -262144 -1
-1;
#X obj 186 64 *~;
#X obj 140 113 +~;
#X obj 230 49 tgl 15 0 empty empty audio_in 17 7 0 10 -262144 -1 -1
0 1;
#X msg 375 150 read -resize hihat.wav hihat;
#X obj 34 61 tabplay~ hihat;
#X obj 198 242 *~ 0.8;
#X obj 234 141 lop~ 1000;
#X obj 198 164 delwrite~ delay1 1000;
#X floatatom 231 221 5 0 0 1 feedback - -;
#X connect 1 0 15 0;
#X connect 2 0 0 0;
#X connect 2 0 0 1;
#X connect 2 0 13 0;
#X connect 5 0 11 0;
#X connect 6 0 8 0;
#X connect 7 0 12 0;
#X connect 8 0 9 1;
#X connect 9 0 1 0;
#X connect 9 0 0 0;
#X connect 9 0 0 1;
#X connect 10 0 8 1;
#X connect 11 0 4 0;
#X connect 12 0 9 0;
#X connect 13 0 14 0;
#X connect 14 0 1 1;
#X connect 16 0 13 1;
