#N canvas 55 22 248 214 10;
#X floatatom 94 26 5 0 0 0 radius - -;
#X obj 94 88 *;
#X floatatom 94 148 5 0 0 0 - - -;
#X obj 94 54 trigger f f;
#X obj 94 119 * 3.14;
#X connect 0 0 3 0;
#X connect 1 0 4 0;
#X connect 3 0 1 0;
#X connect 3 1 1 1;
#X connect 4 0 2 0;
