#N canvas 56 22 306 250 10;
#X obj 142 34 adc~;
#X obj 142 112 clip~ -0.7 0.7;
#X obj 130 147 dac~;
#X floatatom 201 69 5 0 0 2 distortion - -;
#X obj 142 85 *~ 20;
#X obj 90 74 env~;
#X obj 90 98 vsl 15 80 0 127 0 0 empty empty empty 0 -9 0 10 -262144
-1 -1 0 1;
#X connect 0 0 4 0;
#X connect 0 0 5 0;
#X connect 1 0 2 0;
#X connect 1 0 2 1;
#X connect 3 0 4 1;
#X connect 4 0 1 0;
#X connect 5 0 6 0;
