#N canvas 54 22 339 127 10;
#X obj 52 30 bng 15 250 50 0 empty empty empty 17 7 0 10 -262144 -1
-1;
#X obj 136 29 bng 15 250 50 0 empty empty empty 17 7 0 10 -262144 -1
-1;
#X obj 218 29 bng 15 250 50 0 empty empty empty 17 7 0 10 -262144 -1
-1;
#X floatatom 52 74 5 0 0 0 - - -;
#X floatatom 136 73 5 0 0 0 - - -;
#X obj 218 50 dollor_zero;
#X floatatom 218 73 5 0 0 0 - - -;
#X obj 52 51 dollor_zero;
#X obj 136 50 dollor_zero;
#X connect 0 0 7 0;
#X connect 1 0 8 0;
#X connect 2 0 5 0;
#X connect 5 0 6 0;
#X connect 7 0 3 0;
#X connect 8 0 4 0;
