#N canvas 52 22 116 122 10;
#N canvas 169 23 137 187 hoge 1;
#X obj 31 22 inlet;
#X obj 31 131 outlet;
#X floatatom 31 50 5 0 0 0 - - -;
#X floatatom 31 104 5 0 0 0 - - -;
#X obj 31 76 + 2;
#X connect 0 0 2 0;
#X connect 2 0 4 0;
#X connect 3 0 1 0;
#X connect 4 0 3 0;
#X restore 26 48 pd hoge;
#X floatatom 26 21 5 0 0 0 - - -;
#X floatatom 26 74 5 0 0 0 - - -;
#X connect 0 0 2 0;
#X connect 1 0 0 0;
