#N canvas 53 22 468 307 10;
#N canvas 0 22 450 300 (subpatch) 0;
#X array snare 44100 float 2;
#X coords 0 1 44100 -1 100 70 1 0 0;
#X restore 264 25 graph;
#X obj 265 170 soundfiler;
#X msg 265 142 read -resize snare.wav snare;
#X obj 49 186 tabplay~ snare;
#X obj 41 275 dac~;
#X obj 49 157 bng 15 250 50 0 empty empty empty 17 7 0 10 -262144 -1
-1;
#X obj 265 115 loadbang;
#X floatatom 82 212 5 0 0 0 - - -;
#X obj 49 237 *~ 0.5;
#X obj 49 131 metro 100;
#X obj 49 106 tgl 15 0 empty empty empty 17 7 0 10 -262144 -1 -1 0
1;
#X floatatom 164 24 5 0 0 0 BPM - -;
#X obj 164 48 t b f;
#X msg 127 75 60000;
#X obj 176 117 /;
#X obj 176 167 / 4;
#X floatatom 176 142 5 0 0 0 - - -;
#X floatatom 176 193 5 0 0 0 - - -;
#X connect 2 0 1 0;
#X connect 3 0 8 0;
#X connect 5 0 3 0;
#X connect 6 0 2 0;
#X connect 7 0 8 1;
#X connect 8 0 4 0;
#X connect 8 0 4 1;
#X connect 9 0 5 0;
#X connect 10 0 9 0;
#X connect 11 0 12 0;
#X connect 12 0 13 0;
#X connect 12 1 14 1;
#X connect 13 0 14 0;
#X connect 14 0 16 0;
#X connect 15 0 17 0;
#X connect 16 0 15 0;
#X connect 17 0 9 1;
