#N canvas 53 22 1141 648 10;
#N canvas 0 22 450 300 (subpatch) 0;
#X array snare 6276 float 2;
#X coords 0 1 6276 -1 100 70 1 0 0;
#X restore 721 -124 graph;
#X obj 724 239 soundfiler;
#X obj 724 168 loadbang;
#X obj 210 -125 tgl 15 0 empty empty empty 17 7 0 10 -262144 -1 -1
0 1;
#X floatatom 267 -127 5 0 0 0 BPM - -;
#X obj 360 -135 vsl 15 100 0 1 0 0 empty empty empty 0 -9 0 10 -228856
-1 -1 0 1;
#X floatatom 210 -80 5 0 0 0 - - -;
#X obj 379 -135 vsl 15 100 0 1 0 0 empty empty empty 0 -9 0 10 -262144
-1 -1 0 1;
#X obj 360 0 pack 0 0 0 0 0 0 0 0 0 0 0 0 0 0 0 0;
#X obj 305 -17 f;
#N canvas 51 693 227 336 snare 0;
#X obj 98 190 tabplay~ snare;
#X obj 98 169 bng 15 250 50 0 empty empty empty 17 7 0 10 -262144 -1
-1;
#X floatatom 125 226 5 0 0 0 - - -;
#X obj 98 253 *~ 0.5;
#X obj 43 66 list split;
#X msg 71 91 \$1;
#X obj 98 143 t b f;
#X obj 71 115 sel 0;
#X obj 43 35 inlet;
#X obj 85 36 inlet;
#X obj 98 277 outlet~;
#X connect 0 0 3 0;
#X connect 1 0 0 0;
#X connect 2 0 3 1;
#X connect 3 0 10 0;
#X connect 4 1 5 0;
#X connect 5 0 7 0;
#X connect 6 0 1 0;
#X connect 6 1 2 0;
#X connect 7 1 6 0;
#X connect 8 0 4 1;
#X connect 9 0 4 0;
#X restore 102 17 pd snare;
#X obj 210 -58 t f b;
#X obj 101 460 dac~;
#X obj 315 153 f;
#N canvas 279 693 236 334 kick 0;
#X obj 91 173 bng 15 250 50 0 empty empty empty 17 7 0 10 -262144 -1
-1;
#X floatatom 118 227 5 0 0 0 - - -;
#X obj 91 250 *~ 0.5;
#X obj 36 65 list split;
#X msg 64 92 \$1;
#X obj 91 146 t b f;
#X obj 64 120 sel 0;
#X obj 35 30 inlet;
#X obj 78 30 inlet;
#X obj 91 275 outlet~;
#X obj 91 194 tabplay~ kick;
#X connect 0 0 10 0;
#X connect 1 0 2 1;
#X connect 2 0 9 0;
#X connect 3 1 4 0;
#X connect 4 0 6 0;
#X connect 5 0 0 0;
#X connect 5 1 1 0;
#X connect 6 1 5 0;
#X connect 7 0 3 1;
#X connect 8 0 3 0;
#X connect 10 0 2 0;
#X restore 150 192 pd kick;
#N canvas 0 22 450 300 (subpatch) 0;
#X array kick 16514 float 2;
#X coords 0 1 16514 -1 100 70 1 0 0;
#X restore 722 -22 graph;
#N canvas 0 22 450 300 (subpatch) 0;
#X array hihat 6549 float 2;
#X coords 0 1 6549 -1 100 70 1 0 0;
#X restore 723 79 graph;
#N canvas 517 694 246 334 hihat 0;
#X obj 91 169 bng 15 250 50 0 empty empty empty 17 7 0 10 -262144 -1
-1;
#X floatatom 118 218 5 0 0 0 - - -;
#X obj 91 243 *~ 0.5;
#X obj 36 59 list split;
#X msg 64 88 \$1;
#X obj 91 140 t b f;
#X obj 64 114 sel 0;
#X obj 35 29 inlet;
#X obj 79 30 inlet;
#X obj 91 267 outlet~;
#X obj 91 192 tabplay~ hihat;
#X connect 0 0 10 0;
#X connect 1 0 2 1;
#X connect 2 0 9 0;
#X connect 3 1 4 0;
#X connect 4 0 6 0;
#X connect 5 0 0 0;
#X connect 5 1 1 0;
#X connect 6 1 5 0;
#X connect 7 0 3 1;
#X connect 8 0 3 0;
#X connect 10 0 2 0;
#X restore 246 398 pd hihat;
#X obj 365 381 pack 0 0 0 0 0 0 0 0 0 0 0 0 0 0 0 0;
#X obj 321 358 f;
#N canvas 765 693 290 338 counter 0;
#X obj 55 31 metro 100;
#X obj 106 -22 expr 60000/$f1/4;
#X floatatom 106 3 5 0 0 0 - - -;
#X obj 33 93 + 1;
#X obj 33 117 sel 16;
#X msg 33 142 0;
#X obj 55 58 f 0;
#X obj 106 -45 inlet;
#X obj 55 2 inlet;
#X obj 90 98 outlet;
#X connect 0 0 6 0;
#X connect 1 0 2 0;
#X connect 2 0 0 1;
#X connect 3 0 4 0;
#X connect 4 0 5 0;
#X connect 4 1 6 1;
#X connect 5 0 6 1;
#X connect 6 0 3 0;
#X connect 6 0 9 0;
#X connect 7 0 1 0;
#X connect 8 0 0 0;
#X restore 210 -103 pd counter;
#X msg 724 195 read -resize snare.wav snare \, read -resize kick.wav
kick \, read -resize hihat.wav hihat;
#X obj 417 -135 vsl 15 100 0 1 0 0 empty empty empty 0 -9 0 10 -262144
-1 -1 0 1;
#X obj 398 -135 vsl 15 100 0 1 0 0 empty empty empty 0 -9 0 10 -262144
-1 -1 0 1;
#X obj 437 -135 vsl 15 100 0 1 0 0 empty empty empty 0 -9 0 10 -228856
-1 -1 0 1;
#X obj 456 -135 vsl 15 100 0 1 0 0 empty empty empty 0 -9 0 10 -262144
-1 -1 0 1;
#X obj 494 -135 vsl 15 100 0 1 0 0 empty empty empty 0 -9 0 10 -262144
-1 -1 0 1;
#X obj 475 -135 vsl 15 100 0 1 0 0 empty empty empty 0 -9 0 10 -262144
-1 -1 0 1;
#X obj 513 -135 vsl 15 100 0 1 0 0 empty empty empty 0 -9 0 10 -228856
-1 -1 0 1;
#X obj 532 -135 vsl 15 100 0 1 0 0 empty empty empty 0 -9 0 10 -262144
-1 -1 0 1;
#X obj 570 -135 vsl 15 100 0 1 0 0 empty empty empty 0 -9 0 10 -262144
-1 -1 0 1;
#X obj 551 -135 vsl 15 100 0 1 0 0 empty empty empty 0 -9 0 10 -262144
-1 -1 0 1;
#X obj 589 -135 vsl 15 100 0 1 0 0 empty empty empty 0 -9 0 10 -228856
-1 -1 0 1;
#X obj 608 -135 vsl 15 100 0 1 0 0 empty empty empty 0 -9 0 10 -262144
-1 -1 0 1;
#X obj 646 -135 vsl 15 100 0 1 0 0 empty empty empty 0 -9 0 10 -262144
-1 -1 0 1;
#X obj 627 -135 vsl 15 100 0 1 0 0 empty empty empty 0 -9 0 10 -262144
-1 -1 0 1;
#X obj 361 44 vsl 15 100 0 1 0 0 empty empty empty 0 -9 0 10 -228856
-1 -1 0 1;
#X obj 380 44 vsl 15 100 0 1 0 0 empty empty empty 0 -9 0 10 -262144
-1 -1 0 1;
#X obj 418 44 vsl 15 100 0 1 0 0 empty empty empty 0 -9 0 10 -262144
-1 -1 0 1;
#X obj 399 44 vsl 15 100 0 1 0 0 empty empty empty 0 -9 0 10 -262144
-1 -1 0 1;
#X obj 438 44 vsl 15 100 0 1 0 0 empty empty empty 0 -9 0 10 -228856
-1 -1 0 1;
#X obj 457 44 vsl 15 100 0 1 0 0 empty empty empty 0 -9 0 10 -262144
-1 -1 0 1;
#X obj 495 44 vsl 15 100 0 1 0 0 empty empty empty 0 -9 0 10 -262144
-1 -1 0 1;
#X obj 476 44 vsl 15 100 0 1 0 0 empty empty empty 0 -9 0 10 -262144
-1 -1 0 1;
#X obj 514 44 vsl 15 100 0 1 0 0 empty empty empty 0 -9 0 10 -228856
-1 -1 0 1;
#X obj 533 44 vsl 15 100 0 1 0 0 empty empty empty 0 -9 0 10 -262144
-1 -1 0 1;
#X obj 571 44 vsl 15 100 0 1 0 0 empty empty empty 0 -9 0 10 -262144
-1 -1 0 1;
#X obj 552 44 vsl 15 100 0 1 0 0 empty empty empty 0 -9 0 10 -262144
-1 -1 0 1;
#X obj 590 44 vsl 15 100 0 1 0 0 empty empty empty 0 -9 0 10 -228856
-1 -1 0 1;
#X obj 609 44 vsl 15 100 0 1 0 0 empty empty empty 0 -9 0 10 -262144
-1 -1 0 1;
#X obj 647 44 vsl 15 100 0 1 0 0 empty empty empty 0 -9 0 10 -262144
-1 -1 0 1;
#X obj 628 44 vsl 15 100 0 1 0 0 empty empty empty 0 -9 0 10 -262144
-1 -1 0 1;
#X obj 361 175 pack 0 0 0 0 0 0 0 0 0 0 0 0 0 0 0 0;
#X obj 365 249 vsl 15 100 0 1 0 0 empty empty empty 0 -9 0 10 -228856
-1 -1 0 1;
#X obj 384 249 vsl 15 100 0 1 0 0 empty empty empty 0 -9 0 10 -262144
-1 -1 0 1;
#X obj 422 249 vsl 15 100 0 1 0 0 empty empty empty 0 -9 0 10 -262144
-1 -1 0 1;
#X obj 403 249 vsl 15 100 0 1 0 0 empty empty empty 0 -9 0 10 -262144
-1 -1 0 1;
#X obj 442 249 vsl 15 100 0 1 0 0 empty empty empty 0 -9 0 10 -228856
-1 -1 0 1;
#X obj 461 249 vsl 15 100 0 1 0 0 empty empty empty 0 -9 0 10 -262144
-1 -1 0 1;
#X obj 499 249 vsl 15 100 0 1 0 0 empty empty empty 0 -9 0 10 -262144
-1 -1 0 1;
#X obj 480 249 vsl 15 100 0 1 0 0 empty empty empty 0 -9 0 10 -262144
-1 -1 0 1;
#X obj 518 249 vsl 15 100 0 1 0 0 empty empty empty 0 -9 0 10 -228856
-1 -1 0 1;
#X obj 537 249 vsl 15 100 0 1 0 0 empty empty empty 0 -9 0 10 -262144
-1 -1 0 1;
#X obj 575 249 vsl 15 100 0 1 0 0 empty empty empty 0 -9 0 10 -262144
-1 -1 0 1;
#X obj 556 249 vsl 15 100 0 1 0 0 empty empty empty 0 -9 0 10 -262144
-1 -1 0 1;
#X obj 594 249 vsl 15 100 0 1 0 0 empty empty empty 0 -9 0 10 -228856
-1 -1 0 1;
#X obj 613 249 vsl 15 100 0 1 0 0 empty empty empty 0 -9 0 10 -262144
-1 -1 0 1;
#X obj 651 249 vsl 15 100 0 1 0 0 empty empty empty 0 -9 0 10 -262144
-1 -1 0 1;
#X obj 632 249 vsl 15 100 0 1 0 0 empty empty empty 0 -9 0 10 -262144
-1 -1 0 1;
#X connect 2 0 21 0;
#X connect 3 0 20 0;
#X connect 4 0 20 1;
#X connect 5 0 9 1;
#X connect 6 0 11 0;
#X connect 7 0 8 1;
#X connect 8 0 10 1;
#X connect 9 0 8 0;
#X connect 10 0 12 0;
#X connect 10 0 12 1;
#X connect 11 0 10 0;
#X connect 11 0 14 0;
#X connect 11 0 17 0;
#X connect 11 1 9 0;
#X connect 11 1 13 0;
#X connect 11 1 19 0;
#X connect 13 0 52 0;
#X connect 14 0 12 0;
#X connect 14 0 12 1;
#X connect 17 0 12 0;
#X connect 17 0 12 1;
#X connect 18 0 17 1;
#X connect 19 0 18 0;
#X connect 20 0 6 0;
#X connect 21 0 1 0;
#X connect 22 0 8 3;
#X connect 23 0 8 2;
#X connect 24 0 8 4;
#X connect 25 0 8 5;
#X connect 26 0 8 7;
#X connect 27 0 8 6;
#X connect 28 0 8 8;
#X connect 29 0 8 9;
#X connect 30 0 8 11;
#X connect 31 0 8 10;
#X connect 32 0 8 12;
#X connect 33 0 8 13;
#X connect 34 0 8 15;
#X connect 35 0 8 14;
#X connect 36 0 13 1;
#X connect 37 0 52 1;
#X connect 38 0 52 3;
#X connect 39 0 52 2;
#X connect 40 0 52 4;
#X connect 41 0 52 5;
#X connect 42 0 52 7;
#X connect 43 0 52 6;
#X connect 44 0 52 8;
#X connect 45 0 52 9;
#X connect 46 0 52 11;
#X connect 47 0 52 10;
#X connect 48 0 52 12;
#X connect 49 0 52 13;
#X connect 50 0 52 15;
#X connect 51 0 52 14;
#X connect 52 0 14 1;
#X connect 53 0 19 1;
#X connect 54 0 18 1;
#X connect 55 0 18 3;
#X connect 56 0 18 2;
#X connect 57 0 18 4;
#X connect 58 0 18 5;
#X connect 59 0 18 7;
#X connect 60 0 18 6;
#X connect 61 0 18 8;
#X connect 62 0 18 9;
#X connect 63 0 18 11;
#X connect 64 0 18 10;
#X connect 65 0 18 12;
#X connect 66 0 18 13;
#X connect 67 0 18 15;
#X connect 68 0 18 14;
