#N canvas 54 22 535 219 10;
#X floatatom 50 105 5 0 0 0 - - -;
#X obj 50 80 sigmund~ pitch;
#X obj 156 29 adc~;
#X floatatom 150 105 5 0 0 0 - - -;
#X obj 150 80 sigmund~ env;
#X floatatom 255 105 5 0 0 0 - - -;
#X obj 255 80 sigmund~ pitch env;
#X floatatom 360 104 5 0 0 0 - - -;
#X connect 1 0 0 0;
#X connect 2 0 1 0;
#X connect 2 0 4 0;
#X connect 2 0 6 0;
#X connect 4 0 3 0;
#X connect 6 0 5 0;
#X connect 6 1 7 0;
