#N canvas 54 22 246 159 10;
#X obj 30 115 netsend;
#X msg 30 30 connect 192.168.1.4 50000;
#X msg 85 83 send \$1;
#X floatatom 85 63 5 0 0 0 - - -;
#X connect 1 0 0 0;
#X connect 2 0 0 0;
#X connect 3 0 2 0;
