#N canvas 50 22 657 412 10;
#X obj 73 241 osc~ 440;
#X obj 144 254 vline~;
#X floatatom 167 110 5 0 0 2 - - -;
#X floatatom 235 111 5 0 0 2 - - -;
#X floatatom 297 111 5 0 0 2 - - -;
#X floatatom 365 111 5 0 0 2 - - -;
#X msg 144 202 \$1 \$2 \, \$4 \$3 \$2;
#X obj 320 153 pack 0 0;
#X obj 79 106 sel 1 0;
#X obj 79 79 tgl 15 0 empty empty empty 17 7 0 10 -262144 -1 -1 0 1
;
#X obj 144 172 pack 1 0 0 0;
#X obj 73 271 *~;
#X obj 73 304 dac~;
#X obj 167 65 r attack;
#X obj 235 66 r decay;
#X obj 297 66 r sustain;
#X obj 365 66 r release;
#X text 441 126 preset - A;
#X text 442 231 preset - B;
#X obj 167 88 line;
#X obj 235 89 line;
#X obj 297 89 line;
#X obj 365 89 line;
#X msg 443 147 \; attack 50 \; decay 20 \; sustain 0.8 \; release 100
;
#X obj 307 245 key;
#X floatatom 307 271 5 0 0 0 - - -;
#X obj 307 305 sel 122 120;
#X text 337 327 x;
#X text 305 327 z;
#X msg 444 253 \; attack 400 5000 \; decay 100 10000 \; sustain 0.5
5000 \; release 400 10000 \;;
#X connect 0 0 11 0;
#X connect 1 0 11 1;
#X connect 2 0 10 1;
#X connect 3 0 10 2;
#X connect 4 0 10 3;
#X connect 5 0 7 1;
#X connect 6 0 1 0;
#X connect 7 0 1 0;
#X connect 8 0 10 0;
#X connect 8 1 7 0;
#X connect 9 0 8 0;
#X connect 10 0 6 0;
#X connect 11 0 12 0;
#X connect 11 0 12 1;
#X connect 13 0 19 0;
#X connect 14 0 20 0;
#X connect 15 0 21 0;
#X connect 16 0 22 0;
#X connect 19 0 2 0;
#X connect 20 0 3 0;
#X connect 21 0 4 0;
#X connect 22 0 5 0;
#X connect 24 0 25 0;
#X connect 25 0 26 0;
#X connect 26 0 23 0;
#X connect 26 1 29 0;
