#N canvas 55 22 560 361 10;
#X obj 36 205 osc~ 440;
#X obj 114 216 vline~;
#X floatatom 137 84 5 0 0 2 - - -;
#X floatatom 203 84 5 0 0 2 - - -;
#X floatatom 263 84 5 0 0 2 - - -;
#X floatatom 332 85 5 0 0 2 - - -;
#X msg 114 179 \$1 \$2 \, \$4 \$3 \$2;
#X obj 287 131 pack 0 0;
#X obj 43 85 sel 1 0;
#X obj 43 58 tgl 15 0 empty empty empty 17 7 0 10 -262144 -1 -1 0 1
;
#X obj 114 146 pack 1 0 0 0;
#X obj 36 233 *~;
#X obj 36 262 dac~;
#X obj 137 38 r attack;
#X obj 203 38 r decay;
#X obj 263 38 r sustain;
#X obj 332 39 r release;
#X obj 137 61 line;
#X obj 203 61 line;
#X obj 263 61 line;
#X obj 332 62 line;
#X obj 377 247 qlist;
#X msg 377 184 rewind;
#X msg 312 185 next;
#X msg 264 230 print;
#X msg 425 212 read presets.txt;
#X floatatom 377 277 5 0 0 0 - - -;
#X connect 0 0 11 0;
#X connect 1 0 11 1;
#X connect 2 0 10 1;
#X connect 3 0 10 2;
#X connect 4 0 10 3;
#X connect 5 0 7 1;
#X connect 6 0 1 0;
#X connect 7 0 1 0;
#X connect 8 0 10 0;
#X connect 8 1 7 0;
#X connect 9 0 8 0;
#X connect 10 0 6 0;
#X connect 11 0 12 0;
#X connect 11 0 12 1;
#X connect 13 0 17 0;
#X connect 14 0 18 0;
#X connect 15 0 19 0;
#X connect 16 0 20 0;
#X connect 17 0 2 0;
#X connect 18 0 3 0;
#X connect 19 0 4 0;
#X connect 20 0 5 0;
#X connect 21 0 26 0;
#X connect 22 0 21 0;
#X connect 23 0 21 0;
#X connect 24 0 21 0;
#X connect 25 0 21 0;
