#N canvas 55 22 477 399 10;
#X floatatom 49 136 5 0 0 0 pitch - -;
#X obj 49 158 mtof;
#X obj 160 228 osc~;
#X obj 150 202 * 2;
#X obj 218 228 osc~;
#X obj 208 202 * 3;
#X obj 270 228 osc~;
#X obj 103 228 osc~;
#X obj 261 202 * 4;
#X obj 160 251 *~;
#X obj 218 251 *~;
#X obj 270 251 *~;
#X obj 103 251 *~;
#X obj 90 333 dac~;
#X obj 324 228 osc~;
#X obj 324 251 *~;
#X obj 316 202 * 5;
#X obj 103 294 *~ 0.4;
#X obj 121 159 / 127;
#X obj 121 22 vsl 15 128 0 127 0 0 empty empty empty 0 -9 0 10 -262144
-1 -1 0 1;
#X obj 178 159 / 127;
#X obj 178 22 vsl 15 128 0 127 0 0 empty empty empty 0 -9 0 10 -262144
-1 -1 0 1;
#X obj 236 159 / 127;
#X obj 236 22 vsl 15 128 0 127 0 0 empty empty empty 0 -9 0 10 -262144
-1 -1 0 1;
#X obj 288 159 / 127;
#X obj 288 22 vsl 15 128 0 127 0 0 empty empty empty 0 -9 0 10 -262144
-1 -1 0 1;
#X obj 342 159 / 127;
#X obj 342 22 vsl 15 128 0 127 0 0 empty empty empty 0 -9 0 10 -262144
-1 -1 0 1;
#X connect 0 0 1 0;
#X connect 1 0 3 0;
#X connect 1 0 7 0;
#X connect 1 0 5 0;
#X connect 1 0 8 0;
#X connect 1 0 16 0;
#X connect 2 0 9 0;
#X connect 3 0 2 0;
#X connect 4 0 10 0;
#X connect 5 0 4 0;
#X connect 6 0 11 0;
#X connect 7 0 12 0;
#X connect 8 0 6 0;
#X connect 9 0 17 0;
#X connect 10 0 17 0;
#X connect 11 0 17 0;
#X connect 12 0 17 0;
#X connect 14 0 15 0;
#X connect 15 0 17 0;
#X connect 16 0 14 0;
#X connect 17 0 13 0;
#X connect 17 0 13 1;
#X connect 18 0 12 1;
#X connect 19 0 18 0;
#X connect 20 0 9 1;
#X connect 21 0 20 0;
#X connect 22 0 10 1;
#X connect 23 0 22 0;
#X connect 24 0 11 1;
#X connect 25 0 24 0;
#X connect 26 0 15 1;
#X connect 27 0 26 0;
