#N canvas 53 22 483 275 10;
#X obj 274 -6995 unpack;
#X obj 275 -6845 dac~;
#X obj 275 -6871 *~ 0.1;
#X floatatom 275 -6915 5 0 0 0 - - -;
#X obj 38 -6904 soundfiler;
#X msg 174 -7016 512;
#X obj 174 -6875 - 1;
#X obj 174 -6992 until;
#X obj 174 -6852 tabwrite saw;
#X obj 174 -6898 / 256;
#X msg 38 -6928 write saw.wav saw;
#X obj 275 -6894 tabosc4~ saw;
#X obj 274 -6950 tabwrite saw;
#X obj 274 -6973 tabread saw;
#X obj 174 -6922 t f f;
#X obj 174 -6945 + 1;
#X obj 174 -6968 f 0;
#N canvas 0 22 450 300 (subpatch) 0;
#X array saw 515 float 0;
#X coords 0 1 514 -1 100 70 1 0 0;
#X restore 37 -7015 graph;
#X msg 274 -7018 511 0 \, 1 513 \, 2 514;
#X connect 0 0 13 0;
#X connect 0 1 12 1;
#X connect 2 0 1 0;
#X connect 2 0 1 1;
#X connect 3 0 11 0;
#X connect 5 0 7 0;
#X connect 6 0 8 0;
#X connect 7 0 16 0;
#X connect 9 0 6 0;
#X connect 10 0 4 0;
#X connect 11 0 2 0;
#X connect 13 0 12 0;
#X connect 14 0 9 0;
#X connect 14 1 8 1;
#X connect 15 0 16 1;
#X connect 15 0 14 0;
#X connect 16 0 15 0;
#X connect 18 0 0 0;
