#N canvas 55 22 538 313 10;
#N canvas 0 22 450 300 (subpatch) 0;
#X array triangle 515 float 0;
#X coords 0 1 514 -1 100 70 1 0 0;
#X restore 31 4 graph;
#X obj 363 20 unpack;
#X obj 362 166 dac~;
#X obj 362 138 *~ 0.1;
#X floatatom 362 95 5 0 0 0 - - -;
#X obj 31 108 soundfiler;
#X msg 223 0 512;
#X obj 274 151 t b f;
#X obj 274 194 -;
#X obj 223 129 / 128;
#X obj 274 129 / 128;
#X obj 223 150 - 1;
#X obj 223 21 until;
#X msg 274 173 3;
#X obj 223 228 tabwrite triangle;
#X obj 363 65 tabwrite triangle;
#X obj 363 42 tabread triangle;
#X obj 362 116 tabosc4~ triangle;
#X msg 31 84 write triangle.wav triangle;
#X obj 223 106 moses 257;
#X obj 223 63 + 1;
#X obj 223 42 f 0;
#X obj 223 84 t f f;
#X msg 363 -2 511 0 \, 1 513 \, 2 514;
#X connect 1 0 16 0;
#X connect 1 1 15 1;
#X connect 3 0 2 0;
#X connect 3 0 2 1;
#X connect 4 0 17 0;
#X connect 6 0 12 0;
#X connect 7 0 13 0;
#X connect 7 1 8 1;
#X connect 8 0 14 0;
#X connect 9 0 11 0;
#X connect 10 0 7 0;
#X connect 11 0 14 0;
#X connect 12 0 21 0;
#X connect 13 0 8 0;
#X connect 16 0 15 0;
#X connect 17 0 3 0;
#X connect 18 0 5 0;
#X connect 19 0 9 0;
#X connect 19 1 10 0;
#X connect 20 0 21 1;
#X connect 20 0 22 0;
#X connect 21 0 20 0;
#X connect 22 0 19 0;
#X connect 22 1 14 1;
#X connect 23 0 1 0;
