#N canvas 93 22 357 258 10;
#X obj 119 145 osc~;
#X obj 119 173 *~ 0.5;
#X obj 108 204 dac~;
#X floatatom 119 28 5 0 0 0 modulator_freq - -;
#X floatatom 172 101 5 0 0 1 carrier_freq - -;
#X floatatom 171 68 5 0 0 1 modulation_index - -;
#X obj 119 117 +~ 440;
#X obj 119 84 *~ 10;
#X obj 119 51 osc~ 2;
#X connect 0 0 1 0;
#X connect 1 0 2 0;
#X connect 1 0 2 1;
#X connect 3 0 8 0;
#X connect 4 0 6 1;
#X connect 5 0 7 1;
#X connect 6 0 0 0;
#X connect 7 0 6 0;
#X connect 8 0 7 0;
