#N canvas 93 22 204 317 10;
#X obj 74 143 vu 15 120 empty empty -1 -8 0 10 -66577 -1 1 0;
#X obj 73 59 env~;
#X floatatom 73 88 5 0 0 0 - - -;
#X obj 73 113 - 100;
#X obj 73 29 adc~;
#X connect 1 0 2 0;
#X connect 2 0 3 0;
#X connect 3 0 0 0;
#X connect 4 0 1 0;
