#N canvas 53 22 533 267 10;
#X obj 46 144 osc~;
#X obj 46 168 *~ 0.5;
#X obj 32 205 dac~;
#X floatatom 46 35 5 0 0 2 modulator_freq - -;
#X floatatom 367 104 5 0 0 1 carrier_freq - -;
#X floatatom 93 78 5 0 0 1 modulation_index - -;
#X obj 46 120 +~ 440;
#X obj 46 94 *~ 10;
#X obj 46 57 osc~ 2;
#X obj 367 61 * 1;
#X floatatom 367 19 5 0 0 1 - - -;
#X floatatom 382 41 5 0 0 1 harmonic - -;
#X connect 0 0 1 0;
#X connect 1 0 2 0;
#X connect 1 0 2 1;
#X connect 3 0 8 0;
#X connect 4 0 6 1;
#X connect 5 0 7 1;
#X connect 6 0 0 0;
#X connect 7 0 6 0;
#X connect 8 0 7 0;
#X connect 9 0 4 0;
#X connect 10 0 9 0;
#X connect 10 0 3 0;
#X connect 11 0 9 1;
