#N canvas 51 22 367 259 10;
#X obj 221 115 adc~;
#X obj 185 161 writesf~ 2;
#X obj 45 70 bng 15 250 50 0 empty empty empty 17 7 0 10 -262144 -1
-1;
#X msg 45 114 open \$1;
#X msg 112 115 start;
#X msg 165 114 stop;
#X obj 45 91 savepanel;
#X connect 0 0 1 0;
#X connect 0 1 1 1;
#X connect 2 0 6 0;
#X connect 3 0 1 0;
#X connect 4 0 1 0;
#X connect 5 0 1 0;
#X connect 6 0 3 0;
