#N canvas 53 22 323 386 10;
#X floatatom 60 118 5 0 0 1 vib_freq - -;
#X obj 45 214 mtof~;
#X obj 45 23 notein;
#X obj 60 169 *~;
#X floatatom 103 153 5 0 0 1 vib_depth - -;
#X obj 45 191 +~;
#X floatatom 237 100 5 0 0 0 - - -;
#X floatatom 45 81 5 0 0 0 - - -;
#X obj 237 121 / 127;
#X obj 237 167 line~;
#X msg 237 144 \$1 5;
#X obj 135 287 *~;
#X obj 60 139 osc~;
#X obj 45 238 osc~;
#X obj 122 333 dac~;
#X connect 0 0 12 0;
#X connect 1 0 13 0;
#X connect 2 0 7 0;
#X connect 2 1 6 0;
#X connect 3 0 5 1;
#X connect 4 0 3 1;
#X connect 5 0 1 0;
#X connect 6 0 8 0;
#X connect 7 0 5 0;
#X connect 8 0 10 0;
#X connect 9 0 11 1;
#X connect 10 0 9 0;
#X connect 11 0 14 0;
#X connect 11 0 14 1;
#X connect 12 0 3 0;
#X connect 13 0 11 0;
