#N canvas 52 22 530 257 10;
#X obj 115 215 dac~;
#X obj 33 104 tabosc4~ saw;
#X msg 316 139 read -resize saw.wav saw;
#X obj 316 167 soundfiler;
#X obj 128 170 vcf~;
#X floatatom 197 141 5 0 0 2 Q - -;
#X obj 316 113 loadbang;
#X floatatom 33 81 5 0 0 0 - - -;
#N canvas 0 22 450 300 (subpatch) 0;
#X array saw 515 float 0;
#X coords 0 1 514 -1 100 70 1 0 0;
#X restore 313 25 graph;
#X obj 138 129 line~;
#X obj 138 79 pack 0 0 0;
#X obj 138 54 f;
#X msg 138 104 \$1 \, \$2 \$3;
#X floatatom 153 25 5 0 0 2 start - -;
#X floatatom 193 26 5 0 0 2 end - -;
#X floatatom 232 26 5 0 0 2 dur - -;
#X obj 115 25 bng 15 250 50 0 empty empty empty 17 7 0 10 -262144 -1
-1;
#X connect 1 0 4 0;
#X connect 2 0 3 0;
#X connect 4 0 0 0;
#X connect 4 0 0 1;
#X connect 5 0 4 2;
#X connect 6 0 2 0;
#X connect 7 0 1 0;
#X connect 9 0 4 1;
#X connect 10 0 12 0;
#X connect 11 0 10 0;
#X connect 12 0 9 0;
#X connect 13 0 11 1;
#X connect 14 0 10 1;
#X connect 15 0 10 2;
#X connect 16 0 11 0;
