#N canvas 55 22 401 221 10;
#X obj 38 84 dac~;
#X obj 45 -30 tabosc4~ saw;
#X msg 187 52 read -resize saw.wav saw;
#X obj 187 77 soundfiler;
#X floatatom 100 30 5 0 0 2 q - -;
#X obj 187 27 loadbang;
#X floatatom 45 -52 5 0 0 0 - - -;
#N canvas 0 22 450 300 (subpatch) 0;
#X array saw 515 float 0;
#X coords 0 1 514 -1 100 70 1 0 0;
#X restore 187 -52 graph;
#X obj 45 46 vcf~;
#X floatatom 55 22 5 0 0 2 center - -;
#X connect 1 0 8 0;
#X connect 2 0 3 0;
#X connect 4 0 8 2;
#X connect 5 0 2 0;
#X connect 6 0 1 0;
#X connect 8 0 0 0;
#X connect 8 0 0 1;
#X connect 9 0 8 1;
