#N canvas 55 22 321 282 10;
#X floatatom 38 81 5 0 0 0 - - -;
#X obj 38 130 line~;
#X obj 38 105 pack 0 30;
#X floatatom 89 82 5 0 0 2 portament - -;
#X obj 38 24 notein;
#X floatatom 181 80 5 0 0 0 - - -;
#X obj 166 188 *~;
#X obj 181 127 pack 0 5;
#X obj 181 151 line~;
#X obj 181 103 / 127;
#X obj 38 56 mtof;
#X obj 153 221 dac~;
#X obj 38 153 osc~;
#X connect 0 0 2 0;
#X connect 1 0 12 0;
#X connect 2 0 1 0;
#X connect 3 0 2 1;
#X connect 4 0 10 0;
#X connect 4 1 5 0;
#X connect 5 0 9 0;
#X connect 6 0 11 0;
#X connect 6 0 11 1;
#X connect 7 0 8 0;
#X connect 8 0 6 1;
#X connect 9 0 7 0;
#X connect 10 0 0 0;
#X connect 12 0 6 0;
