#N canvas 55 22 456 345 10;
#X floatatom 112 67 5 0 0 0 - - -;
#X obj 112 91 line~;
#X obj 112 19 notein;
#X floatatom 299 82 5 0 0 0 - - -;
#X obj 284 224 *~;
#X obj 299 128 pack 0 5;
#X obj 299 150 line~;
#X obj 299 105 / 127;
#X obj 112 44 mtof;
#X obj 275 279 dac~;
#X obj 112 119 expr~ $v1*pow(2 \, $f2);
#X floatatom 235 94 5 0 0 0 octave_shift - -;
#X obj 112 145 osc~;
#X obj 27 145 osc~;
#X obj 97 174 +~;
#X obj 284 246 *~ 0.5;
#X connect 0 0 1 0;
#X connect 1 0 10 0;
#X connect 1 0 13 0;
#X connect 2 0 8 0;
#X connect 2 1 3 0;
#X connect 3 0 7 0;
#X connect 4 0 15 0;
#X connect 5 0 6 0;
#X connect 6 0 4 1;
#X connect 7 0 5 0;
#X connect 8 0 0 0;
#X connect 10 0 12 0;
#X connect 11 0 10 1;
#X connect 12 0 14 1;
#X connect 13 0 14 0;
#X connect 14 0 4 0;
#X connect 15 0 9 0;
#X connect 15 0 9 1;
