#N canvas 53 22 1004 773 10;
#N canvas 0 22 450 300 (subpatch) 0;
#X array square 515 float 0;
#X coords 0 1 514 -1 100 70 1 0 0;
#X restore 837 373 graph;
#N canvas 0 22 450 300 (subpatch) 0;
#X array saw 515 float 0;
#X coords 0 1 514 -1 100 70 1 0 0;
#X restore 839 277 graph;
#N canvas 0 22 450 300 (subpatch) 0;
#X array triangle 515 float 0;
#X coords 0 1 514 -1 100 70 1 0 0;
#X restore 837 477 graph;
#X obj 591 608 soundfiler;
#X obj 591 545 loadbang;
#X floatatom 134 435 5 0 0 2 start - -;
#X floatatom 147 472 5 0 0 2 end - -;
#X floatatom 187 474 5 0 0 2 dur - -;
#X floatatom 387 439 5 0 0 2 attack - -;
#X floatatom 426 439 5 0 0 2 decay - -;
#X floatatom 474 436 5 0 0 2 sustain - -;
#X floatatom 721 406 5 0 0 2 release - -;
#X floatatom 160 215 5 0 0 2 octave_shift - -;
#X floatatom 52 325 5 0 0 1 amp - -;
#X floatatom 344 80 5 0 0 2 portament - -;
#X floatatom 457 129 5 0 0 2 vib_depth - -;
#X floatatom 404 100 5 0 0 2 vib_freq - -;
#X floatatom 377 215 5 0 0 2 octave_shift - -;
#X floatatom 500 315 5 0 0 1 amp - -;
#X floatatom 608 215 5 0 0 2 octave_shift - -;
#X floatatom 269 316 5 0 0 1 amp - -;
#X obj 404 145 *~;
#X obj 37 294 tabosc4~ saw;
#X obj 254 293 tabosc4~ square;
#X obj 485 291 tabosc4~ triangle;
#X obj 37 347 *~;
#X obj 254 338 *~;
#X obj 485 338 *~;
#X obj 37 370 +~;
#X obj 37 393 +~;
#X obj 338 647 vline~;
#X obj 175 698 *~;
#X msg 338 521 \$1 \$2 \, \$4 \$3 \$2;
#X obj 338 498 pack 0.5 0 0 0;
#X obj 660 16 notein;
#X obj 676 344 moses 1;
#X obj 338 428 / 127;
#X obj 676 430 pack 0 0;
#X obj 485 269 expr~ $v1*pow(2 \, $f2);
#X obj 37 270 expr~ $v1*pow(2 \, $f2);
#X obj 254 270 expr~ $v1*pow(2 \, $f2);
#X obj 37 604 vcf~;
#X floatatom 109 588 5 0 0 2 q - -;
#X obj 119 546 line~;
#X obj 119 499 pack 0 0 0;
#X obj 119 471 f;
#X msg 119 523 \$1 \, \$2 \$3;
#X obj 293 126 line~;
#X obj 293 103 pack 0 50;
#X obj 404 120 osc~ 7;
#X obj 163 735 dac~;
#X obj 311 392 t b f;
#X floatatom 293 33 5 0 0 0 - - -;
#X obj 293 162 +~;
#X obj 293 201 mtof~;
#X msg 591 569 read -resize saw.wav saw \, read -resize square.wav
square \, read -resize triangle.wav triangle;
#X obj 338 458 t f f;
#X obj 459 475 *;
#X connect 4 0 55 0;
#X connect 5 0 45 1;
#X connect 6 0 44 1;
#X connect 7 0 44 2;
#X connect 8 0 33 1;
#X connect 9 0 33 2;
#X connect 10 0 57 1;
#X connect 11 0 37 1;
#X connect 12 0 39 1;
#X connect 13 0 25 1;
#X connect 14 0 48 1;
#X connect 15 0 21 1;
#X connect 16 0 49 0;
#X connect 17 0 40 1;
#X connect 18 0 27 1;
#X connect 19 0 38 1;
#X connect 20 0 26 1;
#X connect 21 0 53 1;
#X connect 22 0 25 0;
#X connect 23 0 26 0;
#X connect 24 0 27 0;
#X connect 25 0 28 0;
#X connect 26 0 28 1;
#X connect 27 0 29 1;
#X connect 28 0 29 0;
#X connect 29 0 41 0;
#X connect 30 0 31 1;
#X connect 31 0 50 0;
#X connect 31 0 50 1;
#X connect 32 0 30 0;
#X connect 33 0 32 0;
#X connect 34 0 52 0;
#X connect 34 1 35 0;
#X connect 35 0 37 0;
#X connect 35 1 51 0;
#X connect 36 0 56 0;
#X connect 37 0 30 0;
#X connect 38 0 24 0;
#X connect 39 0 22 0;
#X connect 40 0 23 0;
#X connect 41 0 31 0;
#X connect 42 0 41 2;
#X connect 43 0 41 1;
#X connect 44 0 46 0;
#X connect 45 0 44 0;
#X connect 46 0 43 0;
#X connect 47 0 53 0;
#X connect 48 0 47 0;
#X connect 49 0 21 0;
#X connect 51 0 45 0;
#X connect 51 1 36 0;
#X connect 52 0 48 0;
#X connect 53 0 54 0;
#X connect 54 0 39 0;
#X connect 54 0 40 0;
#X connect 54 0 38 0;
#X connect 55 0 3 0;
#X connect 56 0 33 0;
#X connect 56 1 57 0;
#X connect 57 0 33 3;
