#N canvas 54 22 472 278 10;
#X obj 187 146 route 1 2 3 4;
#X obj 187 72 poly 8;
#X obj 187 122 pack 0 0 0;
#X obj 27 197 print voice1;
#X obj 187 22 notein;
#X floatatom 187 48 5 0 0 0 - - -;
#X floatatom 224 48 5 0 0 0 - - -;
#X obj 133 197 print voice2;
#X obj 233 197 print voice3;
#X obj 330 197 print voice4;
#X floatatom 187 99 5 0 0 0 - - -;
#X floatatom 225 100 5 0 0 0 - - -;
#X floatatom 263 100 5 0 0 0 - - -;
#X connect 0 0 3 0;
#X connect 0 1 7 0;
#X connect 0 2 8 0;
#X connect 0 3 9 0;
#X connect 1 0 10 0;
#X connect 1 1 11 0;
#X connect 1 2 12 0;
#X connect 2 0 0 0;
#X connect 4 0 5 0;
#X connect 4 1 6 0;
#X connect 5 0 1 0;
#X connect 6 0 1 1;
#X connect 10 0 2 0;
#X connect 11 0 2 1;
#X connect 12 0 2 2;
