#N canvas 118 22 1134 589 10;
#N canvas 0 22 450 300 (subpatch) 0;
#X array square 515 float 0;
#X coords 0 1 514 -1 100 70 1 0 0;
#X restore 271 244 graph;
#N canvas 0 22 450 300 (subpatch) 0;
#X array saw 515 float 0;
#X coords 0 1 514 -1 100 70 1 0 0;
#X restore 272 136 graph;
#N canvas 0 22 450 300 (subpatch) 0;
#X array triangle 515 float 0;
#X coords 0 1 514 -1 100 70 1 0 0;
#X restore 270 359 graph;
#X obj 412 65 soundfiler;
#X obj 412 7 loadbang;
#X floatatom 651 181 5 0 0 2 start - -;
#X floatatom 729 181 5 0 0 2 end - -;
#X floatatom 806 180 5 0 0 2 dur - -;
#X obj 651 201 s start;
#X obj 729 201 s end;
#X obj 806 200 s dur;
#X floatatom 655 303 5 0 0 2 attack - -;
#X floatatom 728 302 5 0 0 2 decay - -;
#X floatatom 799 301 5 0 0 2 sustain - -;
#X floatatom 876 300 5 0 0 2 release - -;
#X obj 655 325 s attack;
#X obj 728 323 s decay;
#X obj 799 322 s sustain;
#X obj 876 321 s release;
#X floatatom 481 167 5 0 0 1 octave_shift - -;
#X obj 481 187 s saw_os;
#X floatatom 414 166 5 0 0 1 amp - -;
#X obj 414 187 s saw_amp;
#X obj 662 453 s portament;
#X floatatom 662 431 5 0 0 2 portament - -;
#X floatatom 756 428 5 0 0 2 vib_depth - -;
#X obj 756 450 s vib_depth;
#X floatatom 847 427 5 0 0 2 vib_freq - -;
#X obj 847 449 s vib_freq;
#X floatatom 482 281 5 0 0 1 octave_shift - -;
#X obj 482 301 s sq_os;
#X floatatom 484 395 5 0 0 1 octave_shift - -;
#X obj 484 415 s tri_os;
#X text 944 197 filter control;
#X text 954 327 envelope;
#X text 966 451 vibrato;
#X floatatom 881 180 5 0 0 2 q - -;
#X obj 881 200 s q;
#X obj 414 144 / 127;
#X floatatom 415 281 5 0 0 1 amp - -;
#X obj 415 259 / 127;
#X floatatom 415 395 5 0 0 1 amp - -;
#X obj 415 373 / 127;
#X obj 414 122 ctlin 20;
#X obj 415 237 ctlin 21;
#X obj 415 351 ctlin 22;
#X obj 623 150 mtof;
#X obj 700 150 mtof;
#X obj 777 149 * 50;
#X obj 851 149 / 2;
#X obj 625 267 * 15;
#X obj 771 265 / 127;
#X obj 699 266 * 15;
#X obj 846 264 * 15;
#X text 630 342 -----------------------------------------------------------
;
#X obj 817 396 / 10;
#X obj 719 395 / 127;
#X obj 628 395 * 5;
#X obj 817 373 ctlin 76;
#X obj 719 372 ctlin 77;
#X obj 628 372 ctlin 5;
#X obj 846 241 ctlin 72;
#X obj 625 244 ctlin 73;
#X obj 699 243 ctlin 75;
#X obj 771 242 ctlin 79;
#X obj 623 128 ctlin 26;
#X obj 700 128 ctlin 27;
#X obj 777 127 ctlin 28;
#X obj 851 127 ctlin 29;
#N canvas 118 22 794 646 tone 0;
#X obj 150 496 outlet~;
#X obj 436 68 *~;
#X obj 152 206 tabosc4~ saw;
#X obj 329 205 tabosc4~ square;
#X obj 507 205 tabosc4~ triangle;
#X floatatom 310 11 5 0 0 0 - - -;
#X obj 152 253 *~;
#X obj 329 260 *~;
#X obj 507 259 *~;
#X obj 152 277 +~;
#X obj 152 301 +~;
#X obj 325 446 vline~;
#X obj 150 471 *~;
#X msg 325 415 \$1 \$2 \, \$4 \$3 \$2;
#X obj 325 390 pack 0.5 0 0 0;
#X obj 557 283 moses 1;
#X obj 325 329 / 127;
#X obj 557 404 pack 0 0;
#X obj 507 179 expr~ $v1*pow(2 \, $f2);
#X obj 152 180 expr~ $v1*pow(2 \, $f2);
#X obj 329 179 expr~ $v1*pow(2 \, $f2);
#X obj 150 444 vcf~;
#X obj 49 401 line~;
#X obj 49 355 pack 0 0 0;
#X obj 49 332 f;
#X msg 49 378 \$1 \, \$2 \$3;
#X obj 310 62 line~;
#X obj 310 40 pack 0 50;
#X obj 310 88 +~;
#X obj 436 40 osc~ 7;
#X obj 64 249 r start;
#X obj 77 275 r end;
#X obj 106 297 r dur;
#X obj 364 328 r attack;
#X obj 420 329 r decay;
#X obj 469 328 r sustain;
#X obj 602 378 r release;
#X obj 275 147 r saw_os;
#X obj 452 146 r sq_os;
#X obj 630 146 r tri_os;
#X obj 167 230 r saw_amp;
#X obj 344 236 r sq_amp;
#X obj 522 229 r tri_amp;
#X obj 361 16 r portament;
#X obj 436 16 r vib_freq;
#X obj 483 51 r vib_depth;
#X obj 171 408 r q;
#X obj 500 -33 inlet;
#X obj 500 -6 unpack 0 0;
#X obj 329 116 mtof~;
#X obj 430 376 *;
#X obj 306 300 t b f;
#X obj 325 357 t f f;
#X connect 1 0 28 1;
#X connect 2 0 6 0;
#X connect 3 0 7 0;
#X connect 4 0 8 0;
#X connect 5 0 27 0;
#X connect 6 0 9 0;
#X connect 7 0 9 1;
#X connect 8 0 10 1;
#X connect 9 0 10 0;
#X connect 10 0 21 0;
#X connect 11 0 12 1;
#X connect 12 0 0 0;
#X connect 13 0 11 0;
#X connect 14 0 13 0;
#X connect 15 0 17 0;
#X connect 15 1 51 0;
#X connect 16 0 52 0;
#X connect 17 0 11 0;
#X connect 18 0 4 0;
#X connect 19 0 2 0;
#X connect 20 0 3 0;
#X connect 21 0 12 0;
#X connect 22 0 21 1;
#X connect 23 0 25 0;
#X connect 24 0 23 0;
#X connect 25 0 22 0;
#X connect 26 0 28 0;
#X connect 27 0 26 0;
#X connect 28 0 49 0;
#X connect 29 0 1 0;
#X connect 30 0 24 1;
#X connect 31 0 23 1;
#X connect 32 0 23 2;
#X connect 33 0 14 1;
#X connect 34 0 14 2;
#X connect 35 0 50 1;
#X connect 36 0 17 1;
#X connect 37 0 19 1;
#X connect 38 0 20 1;
#X connect 39 0 18 1;
#X connect 40 0 6 1;
#X connect 41 0 7 1;
#X connect 42 0 8 1;
#X connect 43 0 27 1;
#X connect 44 0 29 0;
#X connect 45 0 1 1;
#X connect 46 0 21 2;
#X connect 47 0 48 0;
#X connect 48 0 5 0;
#X connect 48 1 15 0;
#X connect 49 0 20 0;
#X connect 49 0 19 0;
#X connect 49 0 18 0;
#X connect 50 0 14 3;
#X connect 51 0 24 0;
#X connect 51 1 16 0;
#X connect 52 0 14 0;
#X connect 52 1 50 0;
#X restore 93 276 pd tone;
#X obj 93 117 notein;
#X floatatom 93 142 5 0 0 0 - - -;
#X floatatom 132 143 5 0 0 0 - - -;
#X floatatom 93 191 5 0 0 0 - - -;
#X floatatom 134 192 5 0 0 0 - - -;
#X floatatom 174 192 5 0 0 0 - - -;
#X obj 93 215 pack 0 0 0;
#X obj 93 239 route 1 2 3 4 5 6 7 8;
#X obj 93 423 +~;
#X obj 123 423 +~;
#X obj 154 423 +~;
#X obj 185 423 +~;
#X obj 154 454 +~;
#X obj 108 454 +~;
#X obj 124 485 +~;
#X obj 111 515 dac~;
#X obj 93 166 poly 8;
#X msg 412 29 read -resize saw.wav saw \, read -resize square.wav square
\, read -resize triangle.wav triangle;
#X text 624 215 ------------------------------------------------------------
;
#X text 947 439 portament/;
#X obj 415 302 s sq_amp;
#X obj 415 415 s tri_amp;
#N canvas 118 22 794 646 tone 0;
#X obj 150 496 outlet~;
#X obj 436 68 *~;
#X obj 152 206 tabosc4~ saw;
#X obj 329 205 tabosc4~ square;
#X obj 507 205 tabosc4~ triangle;
#X floatatom 310 11 5 0 0 0 - - -;
#X obj 152 253 *~;
#X obj 329 260 *~;
#X obj 507 259 *~;
#X obj 152 277 +~;
#X obj 152 301 +~;
#X obj 325 446 vline~;
#X obj 150 471 *~;
#X msg 325 415 \$1 \$2 \, \$4 \$3 \$2;
#X obj 325 390 pack 0.5 0 0 0;
#X obj 557 283 moses 1;
#X obj 325 329 / 127;
#X obj 557 404 pack 0 0;
#X obj 507 179 expr~ $v1*pow(2 \, $f2);
#X obj 152 180 expr~ $v1*pow(2 \, $f2);
#X obj 329 179 expr~ $v1*pow(2 \, $f2);
#X obj 150 444 vcf~;
#X obj 49 401 line~;
#X obj 49 355 pack 0 0 0;
#X obj 49 332 f;
#X msg 49 378 \$1 \, \$2 \$3;
#X obj 310 62 line~;
#X obj 310 40 pack 0 50;
#X obj 310 88 +~;
#X obj 436 40 osc~ 7;
#X obj 64 249 r start;
#X obj 77 275 r end;
#X obj 106 297 r dur;
#X obj 364 328 r attack;
#X obj 420 329 r decay;
#X obj 469 328 r sustain;
#X obj 602 378 r release;
#X obj 275 147 r saw_os;
#X obj 452 146 r sq_os;
#X obj 630 146 r tri_os;
#X obj 167 230 r saw_amp;
#X obj 344 236 r sq_amp;
#X obj 522 229 r tri_amp;
#X obj 361 16 r portament;
#X obj 436 16 r vib_freq;
#X obj 483 51 r vib_depth;
#X obj 171 408 r q;
#X obj 500 -33 inlet;
#X obj 500 -6 unpack 0 0;
#X obj 329 116 mtof~;
#X obj 430 376 *;
#X obj 306 300 t b f;
#X obj 325 357 t f f;
#X connect 1 0 28 1;
#X connect 2 0 6 0;
#X connect 3 0 7 0;
#X connect 4 0 8 0;
#X connect 5 0 27 0;
#X connect 6 0 9 0;
#X connect 7 0 9 1;
#X connect 8 0 10 1;
#X connect 9 0 10 0;
#X connect 10 0 21 0;
#X connect 11 0 12 1;
#X connect 12 0 0 0;
#X connect 13 0 11 0;
#X connect 14 0 13 0;
#X connect 15 0 17 0;
#X connect 15 1 51 0;
#X connect 16 0 52 0;
#X connect 17 0 11 0;
#X connect 18 0 4 0;
#X connect 19 0 2 0;
#X connect 20 0 3 0;
#X connect 21 0 12 0;
#X connect 22 0 21 1;
#X connect 23 0 25 0;
#X connect 24 0 23 0;
#X connect 25 0 22 0;
#X connect 26 0 28 0;
#X connect 27 0 26 0;
#X connect 28 0 49 0;
#X connect 29 0 1 0;
#X connect 30 0 24 1;
#X connect 31 0 23 1;
#X connect 32 0 23 2;
#X connect 33 0 14 1;
#X connect 34 0 14 2;
#X connect 35 0 50 1;
#X connect 36 0 17 1;
#X connect 37 0 19 1;
#X connect 38 0 20 1;
#X connect 39 0 18 1;
#X connect 40 0 6 1;
#X connect 41 0 7 1;
#X connect 42 0 8 1;
#X connect 43 0 27 1;
#X connect 44 0 29 0;
#X connect 45 0 1 1;
#X connect 46 0 21 2;
#X connect 47 0 48 0;
#X connect 48 0 5 0;
#X connect 48 1 15 0;
#X connect 49 0 20 0;
#X connect 49 0 19 0;
#X connect 49 0 18 0;
#X connect 50 0 14 3;
#X connect 51 0 24 0;
#X connect 51 1 16 0;
#X connect 52 0 14 0;
#X connect 52 1 50 0;
#X restore 108 302 pd tone;
#N canvas 118 22 794 646 tone 0;
#X obj 150 496 outlet~;
#X obj 436 68 *~;
#X obj 152 206 tabosc4~ saw;
#X obj 329 205 tabosc4~ square;
#X obj 507 205 tabosc4~ triangle;
#X floatatom 310 11 5 0 0 0 - - -;
#X obj 152 253 *~;
#X obj 329 260 *~;
#X obj 507 259 *~;
#X obj 152 277 +~;
#X obj 152 301 +~;
#X obj 325 446 vline~;
#X obj 150 471 *~;
#X msg 325 415 \$1 \$2 \, \$4 \$3 \$2;
#X obj 325 390 pack 0.5 0 0 0;
#X obj 557 283 moses 1;
#X obj 325 329 / 127;
#X obj 557 404 pack 0 0;
#X obj 507 179 expr~ $v1*pow(2 \, $f2);
#X obj 152 180 expr~ $v1*pow(2 \, $f2);
#X obj 329 179 expr~ $v1*pow(2 \, $f2);
#X obj 150 444 vcf~;
#X obj 49 401 line~;
#X obj 49 355 pack 0 0 0;
#X obj 49 332 f;
#X msg 49 378 \$1 \, \$2 \$3;
#X obj 310 62 line~;
#X obj 310 40 pack 0 50;
#X obj 310 88 +~;
#X obj 436 40 osc~ 7;
#X obj 64 249 r start;
#X obj 77 275 r end;
#X obj 106 297 r dur;
#X obj 364 328 r attack;
#X obj 420 329 r decay;
#X obj 469 328 r sustain;
#X obj 602 378 r release;
#X obj 275 147 r saw_os;
#X obj 452 146 r sq_os;
#X obj 630 146 r tri_os;
#X obj 167 230 r saw_amp;
#X obj 344 236 r sq_amp;
#X obj 522 229 r tri_amp;
#X obj 361 16 r portament;
#X obj 436 16 r vib_freq;
#X obj 483 51 r vib_depth;
#X obj 171 408 r q;
#X obj 500 -33 inlet;
#X obj 500 -6 unpack 0 0;
#X obj 329 116 mtof~;
#X obj 430 376 *;
#X obj 306 300 t b f;
#X obj 325 357 t f f;
#X connect 1 0 28 1;
#X connect 2 0 6 0;
#X connect 3 0 7 0;
#X connect 4 0 8 0;
#X connect 5 0 27 0;
#X connect 6 0 9 0;
#X connect 7 0 9 1;
#X connect 8 0 10 1;
#X connect 9 0 10 0;
#X connect 10 0 21 0;
#X connect 11 0 12 1;
#X connect 12 0 0 0;
#X connect 13 0 11 0;
#X connect 14 0 13 0;
#X connect 15 0 17 0;
#X connect 15 1 51 0;
#X connect 16 0 52 0;
#X connect 17 0 11 0;
#X connect 18 0 4 0;
#X connect 19 0 2 0;
#X connect 20 0 3 0;
#X connect 21 0 12 0;
#X connect 22 0 21 1;
#X connect 23 0 25 0;
#X connect 24 0 23 0;
#X connect 25 0 22 0;
#X connect 26 0 28 0;
#X connect 27 0 26 0;
#X connect 28 0 49 0;
#X connect 29 0 1 0;
#X connect 30 0 24 1;
#X connect 31 0 23 1;
#X connect 32 0 23 2;
#X connect 33 0 14 1;
#X connect 34 0 14 2;
#X connect 35 0 50 1;
#X connect 36 0 17 1;
#X connect 37 0 19 1;
#X connect 38 0 20 1;
#X connect 39 0 18 1;
#X connect 40 0 6 1;
#X connect 41 0 7 1;
#X connect 42 0 8 1;
#X connect 43 0 27 1;
#X connect 44 0 29 0;
#X connect 45 0 1 1;
#X connect 46 0 21 2;
#X connect 47 0 48 0;
#X connect 48 0 5 0;
#X connect 48 1 15 0;
#X connect 49 0 20 0;
#X connect 49 0 19 0;
#X connect 49 0 18 0;
#X connect 50 0 14 3;
#X connect 51 0 24 0;
#X connect 51 1 16 0;
#X connect 52 0 14 0;
#X connect 52 1 50 0;
#X restore 123 327 pd tone;
#N canvas 118 22 794 646 tone 0;
#X obj 150 496 outlet~;
#X obj 436 68 *~;
#X obj 152 206 tabosc4~ saw;
#X obj 329 205 tabosc4~ square;
#X obj 507 205 tabosc4~ triangle;
#X floatatom 310 11 5 0 0 0 - - -;
#X obj 152 253 *~;
#X obj 329 260 *~;
#X obj 507 259 *~;
#X obj 152 277 +~;
#X obj 152 301 +~;
#X obj 325 446 vline~;
#X obj 150 471 *~;
#X msg 325 415 \$1 \$2 \, \$4 \$3 \$2;
#X obj 325 390 pack 0.5 0 0 0;
#X obj 557 283 moses 1;
#X obj 325 329 / 127;
#X obj 557 404 pack 0 0;
#X obj 507 179 expr~ $v1*pow(2 \, $f2);
#X obj 152 180 expr~ $v1*pow(2 \, $f2);
#X obj 329 179 expr~ $v1*pow(2 \, $f2);
#X obj 150 444 vcf~;
#X obj 49 401 line~;
#X obj 49 355 pack 0 0 0;
#X obj 49 332 f;
#X msg 49 378 \$1 \, \$2 \$3;
#X obj 310 62 line~;
#X obj 310 40 pack 0 50;
#X obj 310 88 +~;
#X obj 436 40 osc~ 7;
#X obj 64 249 r start;
#X obj 77 275 r end;
#X obj 106 297 r dur;
#X obj 364 328 r attack;
#X obj 420 329 r decay;
#X obj 469 328 r sustain;
#X obj 602 378 r release;
#X obj 275 147 r saw_os;
#X obj 452 146 r sq_os;
#X obj 630 146 r tri_os;
#X obj 167 230 r saw_amp;
#X obj 344 236 r sq_amp;
#X obj 522 229 r tri_amp;
#X obj 361 16 r portament;
#X obj 436 16 r vib_freq;
#X obj 483 51 r vib_depth;
#X obj 171 408 r q;
#X obj 500 -33 inlet;
#X obj 500 -6 unpack 0 0;
#X obj 329 116 mtof~;
#X obj 430 376 *;
#X obj 306 300 t b f;
#X obj 325 357 t f f;
#X connect 1 0 28 1;
#X connect 2 0 6 0;
#X connect 3 0 7 0;
#X connect 4 0 8 0;
#X connect 5 0 27 0;
#X connect 6 0 9 0;
#X connect 7 0 9 1;
#X connect 8 0 10 1;
#X connect 9 0 10 0;
#X connect 10 0 21 0;
#X connect 11 0 12 1;
#X connect 12 0 0 0;
#X connect 13 0 11 0;
#X connect 14 0 13 0;
#X connect 15 0 17 0;
#X connect 15 1 51 0;
#X connect 16 0 52 0;
#X connect 17 0 11 0;
#X connect 18 0 4 0;
#X connect 19 0 2 0;
#X connect 20 0 3 0;
#X connect 21 0 12 0;
#X connect 22 0 21 1;
#X connect 23 0 25 0;
#X connect 24 0 23 0;
#X connect 25 0 22 0;
#X connect 26 0 28 0;
#X connect 27 0 26 0;
#X connect 28 0 49 0;
#X connect 29 0 1 0;
#X connect 30 0 24 1;
#X connect 31 0 23 1;
#X connect 32 0 23 2;
#X connect 33 0 14 1;
#X connect 34 0 14 2;
#X connect 35 0 50 1;
#X connect 36 0 17 1;
#X connect 37 0 19 1;
#X connect 38 0 20 1;
#X connect 39 0 18 1;
#X connect 40 0 6 1;
#X connect 41 0 7 1;
#X connect 42 0 8 1;
#X connect 43 0 27 1;
#X connect 44 0 29 0;
#X connect 45 0 1 1;
#X connect 46 0 21 2;
#X connect 47 0 48 0;
#X connect 48 0 5 0;
#X connect 48 1 15 0;
#X connect 49 0 20 0;
#X connect 49 0 19 0;
#X connect 49 0 18 0;
#X connect 50 0 14 3;
#X connect 51 0 24 0;
#X connect 51 1 16 0;
#X connect 52 0 14 0;
#X connect 52 1 50 0;
#X restore 137 353 pd tone;
#N canvas 118 22 794 646 tone 0;
#X obj 150 496 outlet~;
#X obj 436 68 *~;
#X obj 152 206 tabosc4~ saw;
#X obj 329 205 tabosc4~ square;
#X obj 507 205 tabosc4~ triangle;
#X floatatom 310 11 5 0 0 0 - - -;
#X obj 152 253 *~;
#X obj 329 260 *~;
#X obj 507 259 *~;
#X obj 152 277 +~;
#X obj 152 301 +~;
#X obj 325 446 vline~;
#X obj 150 471 *~;
#X msg 325 415 \$1 \$2 \, \$4 \$3 \$2;
#X obj 325 390 pack 0.5 0 0 0;
#X obj 557 283 moses 1;
#X obj 325 329 / 127;
#X obj 557 404 pack 0 0;
#X obj 507 179 expr~ $v1*pow(2 \, $f2);
#X obj 152 180 expr~ $v1*pow(2 \, $f2);
#X obj 329 179 expr~ $v1*pow(2 \, $f2);
#X obj 150 444 vcf~;
#X obj 49 401 line~;
#X obj 49 355 pack 0 0 0;
#X obj 49 332 f;
#X msg 49 378 \$1 \, \$2 \$3;
#X obj 310 62 line~;
#X obj 310 40 pack 0 50;
#X obj 310 88 +~;
#X obj 436 40 osc~ 7;
#X obj 64 249 r start;
#X obj 77 275 r end;
#X obj 106 297 r dur;
#X obj 364 328 r attack;
#X obj 420 329 r decay;
#X obj 469 328 r sustain;
#X obj 602 378 r release;
#X obj 275 147 r saw_os;
#X obj 452 146 r sq_os;
#X obj 630 146 r tri_os;
#X obj 167 230 r saw_amp;
#X obj 344 236 r sq_amp;
#X obj 522 229 r tri_amp;
#X obj 361 16 r portament;
#X obj 436 16 r vib_freq;
#X obj 483 51 r vib_depth;
#X obj 171 408 r q;
#X obj 500 -33 inlet;
#X obj 500 -6 unpack 0 0;
#X obj 329 116 mtof~;
#X obj 430 376 *;
#X obj 306 300 t b f;
#X obj 325 357 t f f;
#X connect 1 0 28 1;
#X connect 2 0 6 0;
#X connect 3 0 7 0;
#X connect 4 0 8 0;
#X connect 5 0 27 0;
#X connect 6 0 9 0;
#X connect 7 0 9 1;
#X connect 8 0 10 1;
#X connect 9 0 10 0;
#X connect 10 0 21 0;
#X connect 11 0 12 1;
#X connect 12 0 0 0;
#X connect 13 0 11 0;
#X connect 14 0 13 0;
#X connect 15 0 17 0;
#X connect 15 1 51 0;
#X connect 16 0 52 0;
#X connect 17 0 11 0;
#X connect 18 0 4 0;
#X connect 19 0 2 0;
#X connect 20 0 3 0;
#X connect 21 0 12 0;
#X connect 22 0 21 1;
#X connect 23 0 25 0;
#X connect 24 0 23 0;
#X connect 25 0 22 0;
#X connect 26 0 28 0;
#X connect 27 0 26 0;
#X connect 28 0 49 0;
#X connect 29 0 1 0;
#X connect 30 0 24 1;
#X connect 31 0 23 1;
#X connect 32 0 23 2;
#X connect 33 0 14 1;
#X connect 34 0 14 2;
#X connect 35 0 50 1;
#X connect 36 0 17 1;
#X connect 37 0 19 1;
#X connect 38 0 20 1;
#X connect 39 0 18 1;
#X connect 40 0 6 1;
#X connect 41 0 7 1;
#X connect 42 0 8 1;
#X connect 43 0 27 1;
#X connect 44 0 29 0;
#X connect 45 0 1 1;
#X connect 46 0 21 2;
#X connect 47 0 48 0;
#X connect 48 0 5 0;
#X connect 48 1 15 0;
#X connect 49 0 20 0;
#X connect 49 0 19 0;
#X connect 49 0 18 0;
#X connect 50 0 14 3;
#X connect 51 0 24 0;
#X connect 51 1 16 0;
#X connect 52 0 14 0;
#X connect 52 1 50 0;
#X restore 154 276 pd tone;
#N canvas 118 22 794 646 tone 0;
#X obj 150 496 outlet~;
#X obj 436 68 *~;
#X obj 152 206 tabosc4~ saw;
#X obj 329 205 tabosc4~ square;
#X obj 507 205 tabosc4~ triangle;
#X floatatom 310 11 5 0 0 0 - - -;
#X obj 152 253 *~;
#X obj 329 260 *~;
#X obj 507 259 *~;
#X obj 152 277 +~;
#X obj 152 301 +~;
#X obj 325 446 vline~;
#X obj 150 471 *~;
#X msg 325 415 \$1 \$2 \, \$4 \$3 \$2;
#X obj 325 390 pack 0.5 0 0 0;
#X obj 557 283 moses 1;
#X obj 325 329 / 127;
#X obj 557 404 pack 0 0;
#X obj 507 179 expr~ $v1*pow(2 \, $f2);
#X obj 152 180 expr~ $v1*pow(2 \, $f2);
#X obj 329 179 expr~ $v1*pow(2 \, $f2);
#X obj 150 444 vcf~;
#X obj 49 401 line~;
#X obj 49 355 pack 0 0 0;
#X obj 49 332 f;
#X msg 49 378 \$1 \, \$2 \$3;
#X obj 310 62 line~;
#X obj 310 40 pack 0 50;
#X obj 310 88 +~;
#X obj 436 40 osc~ 7;
#X obj 64 249 r start;
#X obj 77 275 r end;
#X obj 106 297 r dur;
#X obj 364 328 r attack;
#X obj 420 329 r decay;
#X obj 469 328 r sustain;
#X obj 602 378 r release;
#X obj 275 147 r saw_os;
#X obj 452 146 r sq_os;
#X obj 630 146 r tri_os;
#X obj 167 230 r saw_amp;
#X obj 344 236 r sq_amp;
#X obj 522 229 r tri_amp;
#X obj 361 16 r portament;
#X obj 436 16 r vib_freq;
#X obj 483 51 r vib_depth;
#X obj 171 408 r q;
#X obj 500 -33 inlet;
#X obj 500 -6 unpack 0 0;
#X obj 329 116 mtof~;
#X obj 430 376 *;
#X obj 306 300 t b f;
#X obj 325 357 t f f;
#X connect 1 0 28 1;
#X connect 2 0 6 0;
#X connect 3 0 7 0;
#X connect 4 0 8 0;
#X connect 5 0 27 0;
#X connect 6 0 9 0;
#X connect 7 0 9 1;
#X connect 8 0 10 1;
#X connect 9 0 10 0;
#X connect 10 0 21 0;
#X connect 11 0 12 1;
#X connect 12 0 0 0;
#X connect 13 0 11 0;
#X connect 14 0 13 0;
#X connect 15 0 17 0;
#X connect 15 1 51 0;
#X connect 16 0 52 0;
#X connect 17 0 11 0;
#X connect 18 0 4 0;
#X connect 19 0 2 0;
#X connect 20 0 3 0;
#X connect 21 0 12 0;
#X connect 22 0 21 1;
#X connect 23 0 25 0;
#X connect 24 0 23 0;
#X connect 25 0 22 0;
#X connect 26 0 28 0;
#X connect 27 0 26 0;
#X connect 28 0 49 0;
#X connect 29 0 1 0;
#X connect 30 0 24 1;
#X connect 31 0 23 1;
#X connect 32 0 23 2;
#X connect 33 0 14 1;
#X connect 34 0 14 2;
#X connect 35 0 50 1;
#X connect 36 0 17 1;
#X connect 37 0 19 1;
#X connect 38 0 20 1;
#X connect 39 0 18 1;
#X connect 40 0 6 1;
#X connect 41 0 7 1;
#X connect 42 0 8 1;
#X connect 43 0 27 1;
#X connect 44 0 29 0;
#X connect 45 0 1 1;
#X connect 46 0 21 2;
#X connect 47 0 48 0;
#X connect 48 0 5 0;
#X connect 48 1 15 0;
#X connect 49 0 20 0;
#X connect 49 0 19 0;
#X connect 49 0 18 0;
#X connect 50 0 14 3;
#X connect 51 0 24 0;
#X connect 51 1 16 0;
#X connect 52 0 14 0;
#X connect 52 1 50 0;
#X restore 169 302 pd tone;
#N canvas 118 22 794 646 tone 0;
#X obj 150 496 outlet~;
#X obj 436 68 *~;
#X obj 152 206 tabosc4~ saw;
#X obj 329 205 tabosc4~ square;
#X obj 507 205 tabosc4~ triangle;
#X floatatom 310 11 5 0 0 0 - - -;
#X obj 152 253 *~;
#X obj 329 260 *~;
#X obj 507 259 *~;
#X obj 152 277 +~;
#X obj 152 301 +~;
#X obj 325 446 vline~;
#X obj 150 471 *~;
#X msg 325 415 \$1 \$2 \, \$4 \$3 \$2;
#X obj 325 390 pack 0.5 0 0 0;
#X obj 557 283 moses 1;
#X obj 325 329 / 127;
#X obj 557 404 pack 0 0;
#X obj 507 179 expr~ $v1*pow(2 \, $f2);
#X obj 152 180 expr~ $v1*pow(2 \, $f2);
#X obj 329 179 expr~ $v1*pow(2 \, $f2);
#X obj 150 444 vcf~;
#X obj 49 401 line~;
#X obj 49 355 pack 0 0 0;
#X obj 49 332 f;
#X msg 49 378 \$1 \, \$2 \$3;
#X obj 310 62 line~;
#X obj 310 40 pack 0 50;
#X obj 310 88 +~;
#X obj 436 40 osc~ 7;
#X obj 64 249 r start;
#X obj 77 275 r end;
#X obj 106 297 r dur;
#X obj 364 328 r attack;
#X obj 420 329 r decay;
#X obj 469 328 r sustain;
#X obj 602 378 r release;
#X obj 275 147 r saw_os;
#X obj 452 146 r sq_os;
#X obj 630 146 r tri_os;
#X obj 167 230 r saw_amp;
#X obj 344 236 r sq_amp;
#X obj 522 229 r tri_amp;
#X obj 361 16 r portament;
#X obj 436 16 r vib_freq;
#X obj 483 51 r vib_depth;
#X obj 171 408 r q;
#X obj 500 -33 inlet;
#X obj 500 -6 unpack 0 0;
#X obj 329 116 mtof~;
#X obj 430 376 *;
#X obj 306 300 t b f;
#X obj 325 357 t f f;
#X connect 1 0 28 1;
#X connect 2 0 6 0;
#X connect 3 0 7 0;
#X connect 4 0 8 0;
#X connect 5 0 27 0;
#X connect 6 0 9 0;
#X connect 7 0 9 1;
#X connect 8 0 10 1;
#X connect 9 0 10 0;
#X connect 10 0 21 0;
#X connect 11 0 12 1;
#X connect 12 0 0 0;
#X connect 13 0 11 0;
#X connect 14 0 13 0;
#X connect 15 0 17 0;
#X connect 15 1 51 0;
#X connect 16 0 52 0;
#X connect 17 0 11 0;
#X connect 18 0 4 0;
#X connect 19 0 2 0;
#X connect 20 0 3 0;
#X connect 21 0 12 0;
#X connect 22 0 21 1;
#X connect 23 0 25 0;
#X connect 24 0 23 0;
#X connect 25 0 22 0;
#X connect 26 0 28 0;
#X connect 27 0 26 0;
#X connect 28 0 49 0;
#X connect 29 0 1 0;
#X connect 30 0 24 1;
#X connect 31 0 23 1;
#X connect 32 0 23 2;
#X connect 33 0 14 1;
#X connect 34 0 14 2;
#X connect 35 0 50 1;
#X connect 36 0 17 1;
#X connect 37 0 19 1;
#X connect 38 0 20 1;
#X connect 39 0 18 1;
#X connect 40 0 6 1;
#X connect 41 0 7 1;
#X connect 42 0 8 1;
#X connect 43 0 27 1;
#X connect 44 0 29 0;
#X connect 45 0 1 1;
#X connect 46 0 21 2;
#X connect 47 0 48 0;
#X connect 48 0 5 0;
#X connect 48 1 15 0;
#X connect 49 0 20 0;
#X connect 49 0 19 0;
#X connect 49 0 18 0;
#X connect 50 0 14 3;
#X connect 51 0 24 0;
#X connect 51 1 16 0;
#X connect 52 0 14 0;
#X connect 52 1 50 0;
#X restore 185 327 pd tone;
#N canvas 118 22 794 646 tone 0;
#X obj 150 496 outlet~;
#X obj 436 68 *~;
#X obj 152 206 tabosc4~ saw;
#X obj 329 205 tabosc4~ square;
#X obj 507 205 tabosc4~ triangle;
#X floatatom 310 11 5 0 0 0 - - -;
#X obj 152 253 *~;
#X obj 329 260 *~;
#X obj 507 259 *~;
#X obj 152 277 +~;
#X obj 152 301 +~;
#X obj 325 446 vline~;
#X obj 150 471 *~;
#X msg 325 415 \$1 \$2 \, \$4 \$3 \$2;
#X obj 325 390 pack 0.5 0 0 0;
#X obj 557 283 moses 1;
#X obj 325 329 / 127;
#X obj 557 404 pack 0 0;
#X obj 507 179 expr~ $v1*pow(2 \, $f2);
#X obj 152 180 expr~ $v1*pow(2 \, $f2);
#X obj 329 179 expr~ $v1*pow(2 \, $f2);
#X obj 150 444 vcf~;
#X obj 49 401 line~;
#X obj 49 355 pack 0 0 0;
#X obj 49 332 f;
#X msg 49 378 \$1 \, \$2 \$3;
#X obj 310 62 line~;
#X obj 310 40 pack 0 50;
#X obj 310 88 +~;
#X obj 436 40 osc~ 7;
#X obj 64 249 r start;
#X obj 77 275 r end;
#X obj 106 297 r dur;
#X obj 364 328 r attack;
#X obj 420 329 r decay;
#X obj 469 328 r sustain;
#X obj 602 378 r release;
#X obj 275 147 r saw_os;
#X obj 452 146 r sq_os;
#X obj 630 146 r tri_os;
#X obj 167 230 r saw_amp;
#X obj 344 236 r sq_amp;
#X obj 522 229 r tri_amp;
#X obj 361 16 r portament;
#X obj 436 16 r vib_freq;
#X obj 483 51 r vib_depth;
#X obj 171 408 r q;
#X obj 500 -33 inlet;
#X obj 500 -6 unpack 0 0;
#X obj 329 116 mtof~;
#X obj 430 376 *;
#X obj 306 300 t b f;
#X obj 325 357 t f f;
#X connect 1 0 28 1;
#X connect 2 0 6 0;
#X connect 3 0 7 0;
#X connect 4 0 8 0;
#X connect 5 0 27 0;
#X connect 6 0 9 0;
#X connect 7 0 9 1;
#X connect 8 0 10 1;
#X connect 9 0 10 0;
#X connect 10 0 21 0;
#X connect 11 0 12 1;
#X connect 12 0 0 0;
#X connect 13 0 11 0;
#X connect 14 0 13 0;
#X connect 15 0 17 0;
#X connect 15 1 51 0;
#X connect 16 0 52 0;
#X connect 17 0 11 0;
#X connect 18 0 4 0;
#X connect 19 0 2 0;
#X connect 20 0 3 0;
#X connect 21 0 12 0;
#X connect 22 0 21 1;
#X connect 23 0 25 0;
#X connect 24 0 23 0;
#X connect 25 0 22 0;
#X connect 26 0 28 0;
#X connect 27 0 26 0;
#X connect 28 0 49 0;
#X connect 29 0 1 0;
#X connect 30 0 24 1;
#X connect 31 0 23 1;
#X connect 32 0 23 2;
#X connect 33 0 14 1;
#X connect 34 0 14 2;
#X connect 35 0 50 1;
#X connect 36 0 17 1;
#X connect 37 0 19 1;
#X connect 38 0 20 1;
#X connect 39 0 18 1;
#X connect 40 0 6 1;
#X connect 41 0 7 1;
#X connect 42 0 8 1;
#X connect 43 0 27 1;
#X connect 44 0 29 0;
#X connect 45 0 1 1;
#X connect 46 0 21 2;
#X connect 47 0 48 0;
#X connect 48 0 5 0;
#X connect 48 1 15 0;
#X connect 49 0 20 0;
#X connect 49 0 19 0;
#X connect 49 0 18 0;
#X connect 50 0 14 3;
#X connect 51 0 24 0;
#X connect 51 1 16 0;
#X connect 52 0 14 0;
#X connect 52 1 50 0;
#X restore 201 353 pd tone;
#X connect 4 0 87 0;
#X connect 5 0 8 0;
#X connect 6 0 9 0;
#X connect 7 0 10 0;
#X connect 11 0 15 0;
#X connect 12 0 16 0;
#X connect 13 0 17 0;
#X connect 14 0 18 0;
#X connect 19 0 20 0;
#X connect 21 0 22 0;
#X connect 24 0 23 0;
#X connect 25 0 26 0;
#X connect 27 0 28 0;
#X connect 29 0 30 0;
#X connect 31 0 32 0;
#X connect 36 0 37 0;
#X connect 38 0 21 0;
#X connect 39 0 90 0;
#X connect 40 0 39 0;
#X connect 41 0 91 0;
#X connect 42 0 41 0;
#X connect 43 0 38 0;
#X connect 44 0 40 0;
#X connect 45 0 42 0;
#X connect 46 0 5 0;
#X connect 47 0 6 0;
#X connect 48 0 7 0;
#X connect 49 0 36 0;
#X connect 50 0 11 0;
#X connect 51 0 13 0;
#X connect 52 0 12 0;
#X connect 53 0 14 0;
#X connect 55 0 27 0;
#X connect 56 0 25 0;
#X connect 57 0 24 0;
#X connect 58 0 55 0;
#X connect 59 0 56 0;
#X connect 60 0 57 0;
#X connect 61 0 53 0;
#X connect 62 0 50 0;
#X connect 63 0 52 0;
#X connect 64 0 51 0;
#X connect 65 0 46 0;
#X connect 66 0 47 0;
#X connect 67 0 48 0;
#X connect 68 0 49 0;
#X connect 69 0 78 0;
#X connect 70 0 71 0;
#X connect 70 1 72 0;
#X connect 71 0 86 0;
#X connect 72 0 86 1;
#X connect 73 0 76 0;
#X connect 74 0 76 1;
#X connect 75 0 76 2;
#X connect 76 0 77 0;
#X connect 77 0 69 0;
#X connect 77 1 92 0;
#X connect 77 2 93 0;
#X connect 77 3 94 0;
#X connect 77 4 95 0;
#X connect 77 5 96 0;
#X connect 77 6 97 0;
#X connect 77 7 98 0;
#X connect 78 0 83 0;
#X connect 79 0 83 1;
#X connect 80 0 82 0;
#X connect 81 0 82 1;
#X connect 82 0 84 1;
#X connect 83 0 84 0;
#X connect 84 0 85 0;
#X connect 84 0 85 1;
#X connect 86 0 73 0;
#X connect 86 1 74 0;
#X connect 86 2 75 0;
#X connect 87 0 3 0;
#X connect 92 0 78 1;
#X connect 93 0 79 0;
#X connect 94 0 79 1;
#X connect 95 0 80 0;
#X connect 96 0 80 1;
#X connect 97 0 81 0;
#X connect 98 0 81 1;
