#N canvas 52 22 429 283 10;
#X obj 25 243 dac~;
#X obj 131 95 table loop;
#X obj 34 93 soundfiler;
#X obj 37 163 bng 15 250 50 0 empty empty empty 17 7 0 10 -262144 -1
-1;
#X obj 37 185 tabplay~ loop;
#X obj 34 34 loadbang;
#X obj 201 96 table window;
#X floatatom 144 193 5 0 0 1 factor - -;
#N canvas 121 22 312 410 compressor 0;
#X obj 26 24 inlet~;
#X obj 26 88 rfft~;
#X obj 26 288 rifft~;
#X obj 79 294 tabreceive~ window;
#X obj 26 311 *~;
#X obj 26 356 outlet~;
#X obj 26 262 *~;
#X obj 53 263 *~;
#X obj 87 130 *~;
#X obj 141 129 *~;
#X obj 87 152 +~;
#X obj 144 192 inlet;
#X floatatom 144 213 5 0 0 0 - - -;
#X obj 87 174 +~ 1e-20;
#X obj 26 334 /~ 256;
#X obj 84 42 tabreceive~ window;
#X obj 26 59 *~;
#X obj 83 357 block~ 256 2;
#X obj 87 235 clip~ 0 10;
#X obj 87 196 rsqrt~;
#X connect 0 0 16 0;
#X connect 1 0 8 0;
#X connect 1 0 8 1;
#X connect 1 0 6 0;
#X connect 1 1 9 0;
#X connect 1 1 9 1;
#X connect 1 1 7 0;
#X connect 2 0 4 0;
#X connect 3 0 4 1;
#X connect 4 0 14 0;
#X connect 6 0 2 0;
#X connect 7 0 2 1;
#X connect 8 0 10 0;
#X connect 9 0 10 1;
#X connect 10 0 13 0;
#X connect 11 0 12 0;
#X connect 12 0 18 2;
#X connect 13 0 19 0;
#X connect 14 0 5 0;
#X connect 15 0 16 1;
#X connect 16 0 1 0;
#X connect 18 0 7 1;
#X connect 18 0 6 1;
#X connect 19 0 18 0;
#X restore 37 209 pd compressor;
#X msg 34 56 read -resize loop.wav loop \, read -resize window256.wav
window;
#X connect 3 0 4 0;
#X connect 4 0 8 0;
#X connect 4 1 3 0;
#X connect 5 0 9 0;
#X connect 7 0 8 1;
#X connect 8 0 0 0;
#X connect 8 0 0 1;
#X connect 9 0 2 0;
