#N canvas 54 22 498 324 10;
#X obj 65 238 dac~;
#X obj 64 125 soundfiler;
#X obj 65 161 bng 15 250 50 0 empty empty empty 17 7 0 10 -262144 -1
-1;
#X obj 64 66 loadbang;
#N canvas 122 22 388 399 cross_synthsis 0;
#X obj 43 37 inlet~;
#X obj 71 62 tabreceive~ window;
#X obj 43 62 *~;
#X obj 43 101 rfft~;
#X obj 107 265 rifft~;
#X obj 152 284 tabreceive~ window;
#X obj 107 301 *~;
#X obj 107 346 outlet~;
#X obj 107 240 *~;
#X obj 140 241 *~;
#X obj 43 135 *~;
#X obj 74 134 *~;
#X obj 43 169 +~;
#X obj 43 191 sqrt~;
#X obj 154 137 inlet~;
#X obj 182 161 tabreceive~ window;
#X obj 154 160 *~;
#X obj 154 183 rfft~;
#X obj 194 33 block~ 1024 4;
#X obj 107 323 /~ 1024;
#X connect 0 0 2 0;
#X connect 1 0 2 1;
#X connect 2 0 3 0;
#X connect 3 0 10 0;
#X connect 3 0 10 1;
#X connect 3 1 11 0;
#X connect 3 1 11 1;
#X connect 4 0 6 0;
#X connect 5 0 6 1;
#X connect 6 0 19 0;
#X connect 8 0 4 0;
#X connect 9 0 4 1;
#X connect 10 0 12 0;
#X connect 11 0 12 1;
#X connect 12 0 13 0;
#X connect 13 0 8 0;
#X connect 13 0 9 0;
#X connect 14 0 16 0;
#X connect 15 0 16 1;
#X connect 16 0 17 0;
#X connect 17 0 8 1;
#X connect 17 1 9 1;
#X connect 19 0 7 0;
#X restore 65 208 pd cross_synthsis;
#X obj 279 66 table window;
#X obj 136 125 table loop1;
#X obj 213 125 table loop2;
#X obj 65 184 tabplay~ loop1;
#X obj 164 184 tabplay~ loop2;
#X obj 164 160 bng 15 250 50 0 empty empty empty 17 7 0 10 -262144
-1 -1;
#X msg 64 89 read -resize violin.wav loop1 \, read -resize loop.wav
loop2 \, read -resize window1024.wav window;
#X connect 2 0 8 0;
#X connect 3 0 11 0;
#X connect 4 0 0 0;
#X connect 4 0 0 1;
#X connect 8 0 4 0;
#X connect 8 1 2 0;
#X connect 9 0 4 1;
#X connect 9 1 10 0;
#X connect 10 0 9 0;
#X connect 11 0 1 0;
