#N canvas 54 22 500 345 10;
#X obj 34 151 dac~;
#N canvas 121 22 503 265 freeze 0;
#X obj 48 50 inlet~;
#X obj 129 51 tabreceive~ window;
#X obj 48 80 *~;
#X obj 48 102 rfft~;
#X obj 297 106 rifft~;
#X obj 346 118 tabreceive~ window;
#X obj 297 135 *~;
#X obj 297 179 outlet~;
#X obj 297 157 /~ 1024;
#X obj 134 101 bang~;
#X obj 164 131 spigot;
#X obj 48 157 tabwrite~ real;
#X obj 297 60 tabreceive~ real;
#X obj 330 84 tabreceive~ imag;
#X obj 164 157 tabwrite~ imag;
#X obj 197 101 inlet;
#X obj 47 179 table real 512;
#X obj 163 179 table imag 512;
#X obj 158 27 block~ 1024 4;
#X connect 0 0 2 0;
#X connect 1 0 2 1;
#X connect 2 0 3 0;
#X connect 3 0 11 0;
#X connect 3 1 14 0;
#X connect 4 0 6 0;
#X connect 5 0 6 1;
#X connect 6 0 8 0;
#X connect 8 0 7 0;
#X connect 9 0 10 0;
#X connect 10 0 11 0;
#X connect 10 0 14 0;
#X connect 12 0 4 0;
#X connect 13 0 4 1;
#X connect 15 0 10 1;
#X restore 34 117 pd freeze;
#X obj 121 87 tgl 15 0 empty empty empty 17 7 0 10 -262144 -1 -1 1
1;
#X text 143 84 0 = freeze;
#X text 144 99 1 = bypass;
#X obj 34 16 bng 15 250 50 0 empty empty empty 17 7 0 10 -262144 -1
-1;
#X obj 34 204 loadbang;
#X obj 34 263 soundfiler;
#X obj 34 39 tabplay~ loop;
#X obj 34 182 table loop;
#X obj 106 182 table window;
#X obj 121 64 loadbang;
#X msg 34 227 read -resize violin.wav loop \, read -resize window1024.wav
window;
#X connect 1 0 0 0;
#X connect 1 0 0 1;
#X connect 2 0 1 1;
#X connect 5 0 8 0;
#X connect 6 0 12 0;
#X connect 8 0 1 0;
#X connect 8 1 5 0;
#X connect 11 0 2 0;
#X connect 12 0 7 0;
