#N canvas 118 22 192 188 10;
#X obj 86 54 wrap~;
#X floatatom 71 27 5 0 0 0 - - -;
#X obj 71 78 -~;
#X obj 71 103 snapshot~;
#X obj 39 78 bng 15 250 50 0 empty empty empty 17 7 0 10 -262144 -1
-1;
#X floatatom 71 129 5 0 0 0 - - -;
#X connect 0 0 2 1;
#X connect 1 0 2 0;
#X connect 1 0 0 0;
#X connect 2 0 3 0;
#X connect 3 0 5 0;
#X connect 4 0 3 0;
