#N canvas 55 22 402 156 10;
#X obj 77 101 gemwin;
#X msg 76 42 create;
#X msg 131 42 destroy;
#X obj 205 44 gemhead;
#X obj 38 61 tgl 15 0 empty empty empty 17 7 0 10 -262144 -1 -1 0 1
;
#X msg 268 28 0 1 0;
#X msg 325 45 1 0 0;
#X msg 326 76 1 1 0;
#X obj 205 68 color 0 0 1;
#X obj 205 92 teapot 1.75;
#X connect 1 0 0 0;
#X connect 2 0 0 0;
#X connect 3 0 8 0;
#X connect 4 0 0 0;
#X connect 5 0 8 1;
#X connect 6 0 8 1;
#X connect 7 0 8 1;
#X connect 8 0 9 0;
