#N canvas 54 22 317 177 10;
#X obj 55 65 gemwin;
#X msg 55 19 create;
#X msg 105 20 destroy;
#X obj 174 20 gemhead;
#X obj 21 35 tgl 15 0 empty empty empty 17 7 0 10 -262144 -1 -1 0 1
;
#X obj 174 115 teapot 1.75;
#X obj 174 43 color 1 0 0;
#X obj 174 67 rotateXYZ 0 0 45;
#X obj 174 91 scaleXYZ 2 1 1;
#X connect 1 0 0 0;
#X connect 2 0 0 0;
#X connect 3 0 6 0;
#X connect 4 0 0 0;
#X connect 6 0 7 0;
#X connect 7 0 8 0;
#X connect 8 0 5 0;
