#N canvas 55 22 543 210 10;
#X obj 81 107 gemwin;
#X msg 81 50 create;
#X msg 136 50 destroy;
#X obj 44 70 tgl 15 0 empty empty empty 17 7 0 10 -262144 -1 -1 0 1
;
#X obj 353 50 gemhead;
#X floatatom 375 80 5 0 0 0 - - -;
#X obj 353 152 sphere 1 30;
#X obj 353 106 translateXYZ -2 0 0;
#X floatatom 412 80 5 0 0 0 - - -;
#X floatatom 449 80 5 0 0 0 - - -;
#X floatatom 225 79 5 0 0 0 - - -;
#X obj 201 153 sphere 1 30;
#X floatatom 263 80 5 0 0 0 - - -;
#X floatatom 300 80 5 0 0 0 - - -;
#X obj 353 129 color 1 0 0;
#X obj 201 130 scaleXYZ 0.5 0.5 0.5;
#X obj 201 50 gemhead;
#X obj 201 107 translateXYZ 2 0 0;
#X connect 1 0 0 0;
#X connect 2 0 0 0;
#X connect 3 0 0 0;
#X connect 4 0 7 0;
#X connect 5 0 7 1;
#X connect 7 0 14 0;
#X connect 8 0 7 2;
#X connect 9 0 7 3;
#X connect 10 0 17 1;
#X connect 12 0 17 2;
#X connect 13 0 17 3;
#X connect 14 0 6 0;
#X connect 15 0 11 0;
#X connect 16 0 17 0;
#X connect 17 0 15 0;
