#N canvas 58 22 585 230 10;
#X obj 95 120 gemwin;
#X msg 95 72 create;
#X msg 146 72 destroy;
#X obj 240 47 gemhead;
#X obj 64 93 tgl 15 0 empty empty empty 17 7 0 10 -262144 -1 -1 0 1
;
#X obj 240 72 square 1.5;
#X obj 434 127 torus;
#X obj 473 127 teapot;
#X obj 215 127 circle;
#X obj 320 127 cube;
#X obj 354 127 sphere;
#X obj 262 127 triangle;
#X obj 400 127 cone;
#X connect 1 0 0 0;
#X connect 2 0 0 0;
#X connect 3 0 5 0;
#X connect 4 0 0 0;
