#N canvas 53 22 392 232 10;
#X obj 73 111 gemwin;
#X msg 73 39 create;
#X msg 128 39 destroy;
#X obj 199 39 gemhead;
#X obj 40 65 tgl 15 0 empty empty empty 17 7 0 10 -262144 -1 -1 0 1
;
#X obj 199 86 translateXYZ 2 0 0;
#X obj 199 137 translateXYZ -4 0 0;
#X obj 199 112 sphere 1 30;
#X obj 199 162 sphere 1 30;
#X floatatom 234 63 5 0 0 0 - - -;
#X connect 1 0 0 0;
#X connect 2 0 0 0;
#X connect 3 0 5 0;
#X connect 4 0 0 0;
#X connect 5 0 7 0;
#X connect 6 0 8 0;
#X connect 7 0 6 0;
#X connect 9 0 5 1;
