#N canvas 55 22 391 193 10;
#X obj 52 84 gemwin;
#X msg 52 31 create;
#X msg 105 31 destroy;
#X obj 174 31 gemhead;
#X obj 20 48 tgl 15 0 empty empty empty 17 7 0 10 -262144 -1 -1 0 1
;
#X obj 174 106 teapot 1.75;
#X obj 174 79 translateXYZ 2 0 0;
#X floatatom 209 54 5 0 0 0 - - -;
#X floatatom 244 54 5 0 0 0 - - -;
#X floatatom 279 54 5 0 0 0 - - -;
#X connect 1 0 0 0;
#X connect 2 0 0 0;
#X connect 3 0 6 0;
#X connect 4 0 0 0;
#X connect 6 0 5 0;
#X connect 7 0 6 1;
#X connect 8 0 6 2;
#X connect 9 0 6 3;
