#N canvas 52 22 409 343 10;
#X obj 67 90 gemwin;
#X msg 67 32 create;
#X msg 123 33 destroy;
#X obj 25 51 tgl 15 0 empty empty empty 17 7 0 10 -262144 -1 -1 0 1
;
#X obj 187 274 GEMglEnd;
#X obj 187 32 gemhead;
#X obj 187 142 GEMglColor3f 0 1 0;
#X obj 187 186 GEMglColor3f 0 0 1;
#X obj 187 231 GEMglColor3f 1 1 1;
#X obj 187 76 GEMglBegin GL_QUADS;
#X obj 187 54 GEMglShadeModel GL_SMOOTH;
#X obj 187 98 GEMglColor3f 1 0 0;
#X obj 187 120 GEMglVertex3f -2 -2 0;
#X obj 187 164 GEMglVertex3f -2 2 0;
#X obj 187 209 GEMglVertex3f 2 2 0;
#X obj 187 253 GEMglVertex3f 2 -2 0;
#X connect 1 0 0 0;
#X connect 2 0 0 0;
#X connect 3 0 0 0;
#X connect 5 0 10 0;
#X connect 6 0 13 0;
#X connect 7 0 14 0;
#X connect 8 0 15 0;
#X connect 9 0 11 0;
#X connect 10 0 9 0;
#X connect 11 0 12 0;
#X connect 12 0 6 0;
#X connect 13 0 7 0;
#X connect 14 0 8 0;
#X connect 15 0 4 0;
