#N canvas 55 22 494 347 10;
#X obj 69 231 gemwin;
#X msg 69 137 create;
#X msg 85 158 destroy;
#X msg 98 202 lighting 1;
#X obj 67 72 gemhead;
#X obj 67 95 world_light;
#X obj 187 68 gemhead 1;
#X obj 28 192 tgl 15 0 empty empty empty 17 7 0 10 -262144 -1 -1 0
1;
#X obj 187 171 color 1 1 1;
#X obj 298 68 adc~;
#X obj 298 90 env~;
#X obj 298 224 pack 0 0 0;
#X obj 298 111 - 50;
#X obj 298 133 clip 0 50;
#X obj 346 167 expr 50 - \$1;
#X obj 346 189 / 50;
#X obj 298 170 / 50;
#X obj 187 258 sphere 1 30;
#X obj 240 225 * 2;
#X obj 98 179 loadbang;
#X connect 1 0 0 0;
#X connect 2 0 0 0;
#X connect 3 0 0 0;
#X connect 4 0 5 0;
#X connect 6 0 8 0;
#X connect 7 0 0 0;
#X connect 8 0 17 0;
#X connect 9 0 10 0;
#X connect 10 0 12 0;
#X connect 11 0 8 1;
#X connect 12 0 13 0;
#X connect 13 0 14 0;
#X connect 13 0 16 0;
#X connect 14 0 15 0;
#X connect 15 0 11 1;
#X connect 16 0 11 0;
#X connect 16 0 18 0;
#X connect 18 0 17 1;
#X connect 19 0 3 0;
