#N canvas 55 22 636 330 10;
#X obj 235 225 dac~;
#X floatatom 264 41 5 0 0 1 freq - -;
#X floatatom 326 70 5 0 0 1 depth - -;
#X floatatom 105 219 5 0 0 1 feedback - -;
#X obj 264 63 osc~ 0.1;
#X obj 264 86 *~ 2;
#X obj 141 39 adc~;
#X obj 30 36 bng 15 250 50 0 empty empty empty 17 7 0 10 -262144 -1
-1;
#X obj 141 83 *~;
#X obj 30 118 +~;
#X obj 156 62 tgl 15 0 empty empty audio_in 17 7 0 10 -262144 -1 -1
0 1;
#N canvas 0 22 450 300 (subpatch) 0;
#X array riff 110471 float 2;
#X coords 0 1 110471 -1 100 70 1 0 0;
#X restore 407 32 graph;
#X obj 408 163 soundfiler;
#X obj 408 112 loadbang;
#X obj 264 132 vd~ flanger;
#X obj 58 218 *~ 0.9;
#X obj 30 218 +~;
#X obj 30 244 delwrite~ flanger 100;
#X obj 249 163 +~;
#X obj 264 109 +~ 10;
#X msg 408 137 read -resize riff.wav riff;
#X obj 30 58 tabplay~ riff;
#X obj 249 188 *~ 0.3;
#X connect 1 0 4 0;
#X connect 2 0 5 1;
#X connect 3 0 15 1;
#X connect 4 0 5 0;
#X connect 5 0 19 0;
#X connect 6 0 8 0;
#X connect 7 0 21 0;
#X connect 8 0 9 1;
#X connect 9 0 16 0;
#X connect 9 0 18 0;
#X connect 10 0 8 1;
#X connect 13 0 20 0;
#X connect 14 0 15 0;
#X connect 14 0 18 1;
#X connect 15 0 16 1;
#X connect 16 0 17 0;
#X connect 18 0 22 0;
#X connect 19 0 14 0;
#X connect 20 0 12 0;
#X connect 21 0 9 0;
#X connect 21 1 7 0;
#X connect 22 0 0 0;
#X connect 22 0 0 1;
