#N canvas 53 22 598 258 10;
#X obj 142 47 adc~;
#X obj 255 193 dac~;
#N canvas 0 22 450 300 (subpatch) 0;
#X array riff 110471 float 2;
#X coords 0 1 110471 -1 100 70 1 0 0;
#X restore 413 38 graph;
#X obj 414 166 soundfiler;
#X obj 414 118 loadbang;
#X obj 25 65 bng 15 250 50 0 empty empty empty 17 7 0 10 -262144 -1
-1;
#X obj 142 90 *~;
#X obj 25 142 +~;
#X obj 157 69 tgl 15 0 empty empty audio_in 17 7 0 10 -262144 -1 -1
0 1;
#X obj 279 85 *~ 2;
#X obj 279 58 osc~ 5;
#X floatatom 279 35 5 0 0 0 vib_freq - -;
#X floatatom 329 69 5 0 0 2 vib_depth - -;
#X obj 279 109 +~ 10;
#X obj 264 159 +~;
#X obj 25 177 delwrite~ chorus 30;
#X obj 279 132 vd~ chorus;
#X msg 414 141 read -resize riff.wav riff;
#X obj 25 89 tabplay~ riff;
#X connect 0 0 6 0;
#X connect 4 0 17 0;
#X connect 5 0 18 0;
#X connect 6 0 7 1;
#X connect 7 0 14 0;
#X connect 7 0 15 0;
#X connect 8 0 6 1;
#X connect 9 0 13 0;
#X connect 10 0 9 0;
#X connect 11 0 10 0;
#X connect 12 0 9 1;
#X connect 13 0 16 0;
#X connect 14 0 1 0;
#X connect 14 0 1 1;
#X connect 16 0 14 1;
#X connect 17 0 3 0;
#X connect 18 0 7 0;
#X connect 18 1 5 0;
