#N canvas 48 22 715 379 10;
#X obj 138 32 adc~;
#X obj 243 330 dac~;
#N canvas 0 22 450 300 (subpatch) 0;
#X array riff 110471 float 2;
#X coords 0 1 110471 -1 100 70 1 0 0;
#X restore 476 28 graph;
#X obj 477 157 soundfiler;
#X obj 477 110 loadbang;
#X obj 29 36 bng 15 250 50 0 empty empty empty 17 7 0 10 -262144 -1
-1;
#X obj 138 74 *~;
#X obj 29 114 +~;
#X obj 153 54 tgl 15 0 empty empty audio_in 17 7 0 10 -262144 -1 -1
0 1;
#X obj 255 275 +~;
#X obj 270 61 +~ 5;
#X obj 270 15 osc~ 5;
#X obj 270 38 *~ 0.6;
#X obj 322 164 +~ 5;
#X obj 373 265 +~ 5;
#X obj 322 141 *~ 1.1;
#X obj 373 241 *~ 1.5;
#X obj 373 218 osc~ 0.6;
#X obj 322 119 osc~ 1.4;
#X obj 29 232 delwrite~ deep_chorus 30;
#X obj 270 84 vd~ deep_chorus;
#X obj 322 186 vd~ deep_chorus;
#X obj 373 289 vd~ deep_chorus;
#X obj 29 57 tabplay~ riff;
#X msg 477 133 read -resize riff.wav riff;
#X obj 255 298 *~ 0.3;
#X connect 0 0 6 0;
#X connect 4 0 24 0;
#X connect 5 0 23 0;
#X connect 6 0 7 1;
#X connect 7 0 9 0;
#X connect 7 0 19 0;
#X connect 8 0 6 1;
#X connect 9 0 25 0;
#X connect 10 0 20 0;
#X connect 11 0 12 0;
#X connect 12 0 10 0;
#X connect 13 0 21 0;
#X connect 14 0 22 0;
#X connect 15 0 13 0;
#X connect 16 0 14 0;
#X connect 17 0 16 0;
#X connect 18 0 15 0;
#X connect 20 0 9 1;
#X connect 21 0 9 1;
#X connect 22 0 9 1;
#X connect 23 0 7 0;
#X connect 23 1 5 0;
#X connect 24 0 3 0;
#X connect 25 0 1 0;
#X connect 25 0 1 1;
