#N canvas 54 22 612 263 10;
#X obj 27 209 dac~;
#X obj 243 125 *~ 50;
#X obj 152 48 adc~;
#X obj 38 24 bng 15 250 50 0 empty empty empty 17 7 0 10 -262144 -1
-1;
#X obj 152 95 *~;
#X obj 38 112 +~;
#X obj 167 75 tgl 15 0 empty empty audio_in 17 7 0 10 -262144 -1 -1
0 1;
#N canvas 0 22 450 300 (subpatch) 0;
#X array melody 245832 float 2;
#X coords 0 1 245832 -1 100 70 1 0 0;
#X restore 371 28 graph;
#X obj 372 167 soundfiler;
#X obj 372 114 loadbang;
#X obj 243 153 vd~ harmonizer;
#X obj 58 139 delwrite~ harmonizer 50;
#X obj 38 170 +~;
#X floatatom 243 78 5 0 0 1 pitch - -;
#X obj 243 100 phasor~ -5;
#X msg 372 141 read -resize melody.wav melody;
#X obj 38 47 tabplay~ melody;
#X connect 1 0 10 0;
#X connect 2 0 4 0;
#X connect 3 0 16 0;
#X connect 4 0 5 1;
#X connect 5 0 11 0;
#X connect 5 0 12 0;
#X connect 6 0 4 1;
#X connect 9 0 15 0;
#X connect 10 0 12 1;
#X connect 12 0 0 0;
#X connect 12 0 0 1;
#X connect 13 0 14 0;
#X connect 14 0 1 0;
#X connect 15 0 8 0;
#X connect 16 0 5 0;
