#N canvas 53 22 856 363 10;
#X obj 320 168 *~ 50;
#X floatatom 399 9 5 0 0 0 pitch - -;
#X obj 305 221 *~;
#X obj 399 32 phasor~ -5;
#X obj 519 172 *~ 50;
#X obj 504 226 *~;
#X obj 384 258 +~;
#X obj 519 64 +~ 0.5;
#N canvas 0 22 450 300 (subpatch) 0;
#X array melody 245832 float 2;
#X coords 0 1 245832 -1 100 70 1 0 0;
#X restore 639 28 graph;
#X obj 640 157 soundfiler;
#X obj 640 107 loadbang;
#X obj 211 310 dac~;
#X obj 131 53 adc~;
#X obj 22 30 bng 15 250 50 0 empty empty empty 17 7 0 10 -262144 -1
-1;
#X obj 131 95 *~;
#X obj 22 112 +~;
#X obj 146 76 tgl 15 0 empty empty audio_in 17 7 0 10 -262144 -1 -1
0 1;
#X obj 519 87 wrap~;
#X obj 519 195 vd~ harmonizer2;
#X obj 320 189 vd~ harmonizer2;
#X obj 22 273 delwrite~ harmonizer2 50;
#X obj 245 145 cos~;
#X obj 245 167 *~ 0.5;
#X obj 226 275 +~;
#X obj 245 122 +~ 0.5;
#X obj 245 188 +~ 0.5;
#X obj 442 148 cos~;
#X obj 442 170 *~ 0.5;
#X obj 442 126 +~ 0.5;
#X obj 442 193 +~ 0.5;
#X msg 640 132 read -resize melody.wav melody;
#X obj 22 53 tabplay~ melody;
#X connect 0 0 19 0;
#X connect 1 0 3 0;
#X connect 2 0 6 0;
#X connect 3 0 0 0;
#X connect 3 0 7 0;
#X connect 3 0 24 0;
#X connect 4 0 18 0;
#X connect 5 0 6 1;
#X connect 6 0 23 1;
#X connect 7 0 17 0;
#X connect 10 0 30 0;
#X connect 12 0 14 0;
#X connect 13 0 31 0;
#X connect 14 0 15 1;
#X connect 15 0 20 0;
#X connect 15 0 23 0;
#X connect 16 0 14 1;
#X connect 17 0 4 0;
#X connect 17 0 28 0;
#X connect 18 0 5 1;
#X connect 19 0 2 1;
#X connect 21 0 22 0;
#X connect 22 0 25 0;
#X connect 23 0 11 0;
#X connect 23 0 11 1;
#X connect 24 0 21 0;
#X connect 25 0 2 0;
#X connect 26 0 27 0;
#X connect 27 0 29 0;
#X connect 28 0 26 0;
#X connect 29 0 5 0;
#X connect 30 0 9 0;
#X connect 31 0 15 0;
