#N canvas 93 22 307 278 10;
#X floatatom 82 42 5 0 0 0 interval - -;
#X floatatom 82 89 5 0 0 0 ratio - -;
#X obj 82 115 *;
#X floatatom 131 99 5 0 0 1 reference_freq - -;
#X obj 82 141 osc~;
#X obj 82 201 dac~;
#X obj 82 165 *~ 0.1;
#X obj 82 64 expr pow(2 \, $f1/12);
#X connect 0 0 7 0;
#X connect 1 0 2 0;
#X connect 2 0 4 0;
#X connect 3 0 2 1;
#X connect 4 0 6 0;
#X connect 6 0 5 1;
#X connect 6 0 5 0;
#X connect 7 0 1 0;
