#N canvas 55 22 990 565 10;
#X obj 394 284 *~ 50;
#X obj 367 331 *~;
#X obj 394 143 phasor~ -5;
#X obj 588 293 *~ 50;
#X obj 561 348 *~;
#X obj 451 394 +~;
#X obj 588 185 +~ 0.5;
#N canvas 0 22 450 300 (subpatch) 0;
#X array melody 245832 float 2;
#X coords 0 1 245832 -1 100 70 1 0 0;
#X restore 735 112 graph;
#X obj 736 240 soundfiler;
#X obj 736 196 loadbang;
#X obj 363 454 dac~;
#X obj 223 164 adc~;
#X obj 114 145 bng 15 250 50 0 empty empty empty 17 7 0 10 -262144
-1 -1;
#X obj 223 204 *~;
#X obj 114 221 +~;
#X obj 238 185 tgl 15 0 empty empty audio_in 17 7 0 10 -262144 -1 -1
0 1;
#X obj 588 216 wrap~;
#X obj 588 316 vd~ harmonizer2;
#X obj 394 307 vd~ harmonizer2;
#X obj 114 455 delwrite~ harmonizer2 50;
#X obj 311 263 cos~;
#X obj 311 286 *~ 0.5;
#X obj 378 419 +~;
#X obj 311 241 +~ 0.5;
#X obj 311 308 +~ 0.5;
#X obj 514 272 cos~;
#X obj 514 295 *~ 0.5;
#X obj 514 250 +~ 0.5;
#X obj 514 317 +~ 0.5;
#X floatatom 394 30 5 0 0 0 interval - -;
#X floatatom 394 74 5 0 0 0 - - -;
#X obj 394 96 expr ($f1 - 1.0) * -20;
#X floatatom 394 120 5 0 0 0 pitch - -;
#X msg 736 217 read -resize melody.wav melody;
#X obj 394 51 expr pow(2 \, $f1/12);
#X obj 114 164 tabplay~ melody;
#X connect 0 0 18 0;
#X connect 1 0 5 0;
#X connect 2 0 0 0;
#X connect 2 0 6 0;
#X connect 2 0 23 0;
#X connect 3 0 17 0;
#X connect 4 0 5 1;
#X connect 5 0 22 1;
#X connect 6 0 16 0;
#X connect 9 0 33 0;
#X connect 11 0 13 0;
#X connect 12 0 35 0;
#X connect 13 0 14 1;
#X connect 14 0 19 0;
#X connect 14 0 22 0;
#X connect 15 0 13 1;
#X connect 16 0 3 0;
#X connect 16 0 27 0;
#X connect 17 0 4 1;
#X connect 18 0 1 1;
#X connect 20 0 21 0;
#X connect 21 0 24 0;
#X connect 22 0 10 0;
#X connect 22 0 10 1;
#X connect 23 0 20 0;
#X connect 24 0 1 0;
#X connect 25 0 26 0;
#X connect 26 0 28 0;
#X connect 27 0 25 0;
#X connect 28 0 4 0;
#X connect 29 0 34 0;
#X connect 30 0 31 0;
#X connect 31 0 32 0;
#X connect 32 0 2 0;
#X connect 33 0 8 0;
#X connect 34 0 30 0;
#X connect 35 0 14 0;
#X connect 35 1 12 0;
