#N canvas 53 22 217 156 10;
#X obj 47 55 osc~ 440;
#X obj 47 93 dac~;
#X floatatom 47 26 5 0 0 0 - - -;
#X obj 112 91 print~;
#X obj 112 56 bng 15 250 50 0 empty empty empty 17 7 0 10 -262144 -1
-1;
#X connect 0 0 1 0;
#X connect 0 0 3 0;
#X connect 2 0 0 0;
#X connect 4 0 3 0;
