#N canvas 53 22 539 176 10;
#X symbolatom 63 19 40 0 0 0 - - -;
#X obj 63 108 netsend 1;
#X msg 146 68 disconnect;
#X msg 145 45 connect 192.168.1.1 50001;
#X obj 333 20 netreceive 50000 1;
#X obj 333 43 prepend set;
#X msg 63 45 send \$1;
#X msg 333 67 hoge fuga;
#X connect 0 0 6 0;
#X connect 2 0 1 0;
#X connect 3 0 1 0;
#X connect 4 0 5 0;
#X connect 5 0 7 0;
#X connect 6 0 1 0;
