#N canvas 56 22 538 181 10;
#X symbolatom 57 25 40 0 0 0 - - -;
#X obj 57 117 netsend 1;
#X msg 134 79 disconnect;
#X msg 133 53 connect 192.168.1.4 50000;
#X obj 332 27 netreceive 50001 1;
#X obj 332 51 prepend set;
#X msg 57 53 send \$1;
#X msg 332 76 foo bar;
#X connect 0 0 6 0;
#X connect 2 0 1 0;
#X connect 3 0 1 0;
#X connect 4 0 5 0;
#X connect 5 0 7 0;
#X connect 6 0 1 0;
