#N canvas 51 22 469 234 10;
#X obj 38 59 soundfiler;
#N canvas 0 22 450 300 (subpatch) 0;
#X array sample1 44100 float 2;
#X coords 0 1 44100 -1 200 140 1 0 0;
#X restore 203 33 graph;
#X obj 30 152 dac~;
#X obj 39 114 tabplay~ sample1;
#X obj 39 91 bng 15 250 50 0 empty empty empty 17 7 0 10 -262144 -1
-1;
#X msg 38 33 read guitar.wav sample1;
#X connect 3 0 2 0;
#X connect 3 0 2 1;
#X connect 4 0 3 0;
#X connect 5 0 0 0;
