#N canvas 52 22 484 176 10;
#X floatatom 55 40 5 0 0 0 - - -;
#X msg 193 45 1979 31;
#X obj 193 99 print b;
#X obj 55 96 print a;
#X msg 193 71 I was born in \$1. I am \$2 years old.;
#X msg 55 67 I am \$1 years old.;
#X connect 0 0 5 0;
#X connect 1 0 4 0;
#X connect 4 0 2 0;
#X connect 5 0 3 0;
