#N canvas 52 22 501 244 10;
#N canvas 0 22 450 300 (subpatch) 0;
#X array sampleA 44100 float 2;
#X coords 0 1 44100 -1 200 140 1 0 0;
#X restore 35 46 graph;
#X obj 329 43 adc~;
#X obj 292 87 tabwrite~ sampleA;
#X obj 257 46 bng 15 250 50 0 empty empty empty 17 7 0 10 -262144 -1
-1;
#X obj 291 120 tabwrite~ sampleB;
#X obj 292 156 table sampleB 44100;
#X connect 1 0 2 0;
#X connect 1 0 4 0;
#X connect 3 0 2 0;
#X connect 3 0 4 0;
