#N canvas 53 22 544 255 10;
#X obj 69 70 soundfiler;
#X obj 60 194 dac~;
#X obj 70 154 tabplay~ sample1;
#X obj 70 116 bng 15 250 50 0 empty empty empty 17 7 0 10 -262144 -1
-1;
#N canvas 0 22 450 300 (subpatch) 0;
#X array sample1 44100 float 2;
#X coords 0 1 44100 -1 200 140 1 0 0;
#X restore 283 33 graph;
#X msg 69 36 read -resize guitar.wav sample1;
#X msg 102 116 85000;
#X msg 156 115 40000 44100;
#X connect 2 0 1 0;
#X connect 2 0 1 1;
#X connect 3 0 2 0;
#X connect 5 0 0 0;
#X connect 6 0 2 0;
#X connect 7 0 2 0;
