#N canvas 51 22 718 203 10;
#X obj 111 155 dac~;
#N canvas 0 22 450 300 (subpatch) 0;
#X array sample1 44100 float 2;
#X coords 0 1 44100 -1 100 70 1 0 0;
#X restore 337 41 graph;
#X obj 123 117 tabread~ sample1;
#X obj 123 87 line~;
#X msg 123 44 0 \, 44100 1000;
#X obj 462 92 soundfiler;
#X msg 462 66 read guitar.wav sample1;
#X obj 462 41 loadbang;
#X msg 27 44 0 \, 44100 500;
#X msg 224 43 0 \, 44100 2000;
#X connect 2 0 0 0;
#X connect 2 0 0 1;
#X connect 3 0 2 0;
#X connect 4 0 3 0;
#X connect 6 0 5 0;
#X connect 7 0 6 0;
#X connect 8 0 3 0;
#X connect 9 0 3 0;
