#N canvas 49 22 571 192 10;
#X obj 57 152 dac~;
#N canvas 0 22 450 300 (subpatch) 0;
#X array sample 44100 float 2;
#X coords 0 1 44100 -1 100 70 1 0 0;
#X restore 210 32 graph;
#X obj 68 117 tabread~ sample;
#X obj 330 31 loadbang;
#X msg 330 57 read -resize guitar.wav sample;
#X obj 330 82 soundfiler;
#X obj 119 25 phasor~ 20;
#X obj 119 59 *~ 2205;
#X obj 68 91 +~;
#X floatatom 68 60 5 0 0 0 offset - -;
#X connect 2 0 0 0;
#X connect 2 0 0 1;
#X connect 3 0 4 0;
#X connect 4 0 5 0;
#X connect 6 0 7 0;
#X connect 7 0 8 1;
#X connect 8 0 2 0;
#X connect 9 0 8 0;
