#N canvas 52 22 561 194 10;
#X obj 41 149 dac~;
#N canvas 0 22 450 300 (subpatch) 0;
#X array sample 44100 float 2;
#X coords 0 1 44100 -1 100 70 1 0 0;
#X restore 164 50 graph;
#X obj 52 105 tabread~ sample;
#X obj 289 48 loadbang;
#X msg 289 75 read -resize guitar.wav sample;
#X obj 289 103 soundfiler;
#X obj 52 51 phasor~ 20;
#X obj 52 79 *~ 2205;
#X connect 2 0 0 0;
#X connect 2 0 0 1;
#X connect 3 0 4 0;
#X connect 4 0 5 0;
#X connect 6 0 7 0;
#X connect 7 0 2 0;
