#N canvas 54 22 714 234 10;
#X obj 109 166 dac~;
#N canvas 0 22 450 300 (subpatch) 0;
#X array sample 44100 float 2;
#X coords 0 1 44100 -1 100 70 1 0 0;
#X restore 294 44 graph;
#X obj 433 97 soundfiler;
#X obj 433 44 loadbang;
#X msg 433 71 read -resize guitar.wav sample;
#X obj 166 98 tabread~ sample;
#X obj 166 73 line~;
#X obj 42 99 tabplay~ sample;
#X obj 42 76 bng 15 250 50 0 empty empty empty 17 7 0 10 -262144 -1
-1;
#X msg 166 47 0 \, 44100 1000;
#X connect 3 0 4 0;
#X connect 4 0 2 0;
#X connect 5 0 0 0;
#X connect 5 0 0 1;
#X connect 6 0 5 0;
#X connect 7 0 0 0;
#X connect 7 0 0 1;
#X connect 8 0 7 0;
#X connect 9 0 6 0;
