#N canvas 52 22 554 191 10;
#X obj 52 32 bng 15 250 50 0 empty empty empty 17 7 0 10 -262144 -1
-1;
#X obj 52 67 tabplay~ sample;
#X obj 52 120 dac~;
#N canvas 0 22 450 300 (subpatch) 0;
#X array sample 44100 float 2;
#X coords 0 1 44100 -1 100 70 1 0 0;
#X restore 168 35 graph;
#X obj 294 84 soundfiler;
#X obj 294 35 loadbang;
#X msg 294 60 read -resize guitar.wav sample;
#X connect 0 0 1 0;
#X connect 1 0 2 0;
#X connect 1 0 2 1;
#X connect 1 1 0 0;
#X connect 5 0 6 0;
#X connect 6 0 4 0;
