#N canvas 50 22 668 263 10;
#X obj -28 223 dac~;
#N canvas 0 22 450 300 (subpatch) 0;
#X array sample 44100 float 2;
#X coords 0 1 44100 -1 100 70 1 0 0;
#X restore 139 29 graph;
#X obj -76 139 tabread~ sample;
#X obj 263 27 loadbang;
#X msg 263 51 read -resize guitar.wav sample;
#X obj 263 77 soundfiler;
#X obj -40 24 phasor~ 20;
#X obj -40 81 *~ 2205;
#X obj -76 113 +~;
#X floatatom -106 81 5 0 0 0 offset - -;
#X obj 67 80 cos~;
#X obj -17 182 *~;
#X obj 67 104 *~ 0.5;
#X obj 67 128 +~ 0.5;
#X obj 67 56 +~ 0.5;
#X connect 2 0 11 0;
#X connect 3 0 4 0;
#X connect 4 0 5 0;
#X connect 6 0 7 0;
#X connect 6 0 14 0;
#X connect 7 0 8 1;
#X connect 8 0 2 0;
#X connect 9 0 8 0;
#X connect 10 0 12 0;
#X connect 11 0 0 1;
#X connect 11 0 0 0;
#X connect 12 0 13 0;
#X connect 13 0 11 1;
#X connect 14 0 10 0;
