#N canvas 54 22 703 234 10;
#X obj 125 178 dac~;
#N canvas 0 22 450 300 (subpatch) 0;
#X array sample1 44100 float 2;
#X coords 0 1 44100 -1 100 70 1 0 0;
#X restore 350 60 graph;
#X obj 136 140 tabread~ sample1;
#X obj 136 110 line~;
#X obj 486 113 soundfiler;
#X msg 486 86 read guitar.wav sample1;
#X obj 486 59 loadbang;
#X msg 136 63 44100 \, 0 1000;
#X msg 236 63 44100 \, 0 2000;
#X msg 41 63 44100 \, 0 500;
#X connect 2 0 0 0;
#X connect 2 0 0 1;
#X connect 3 0 2 0;
#X connect 5 0 4 0;
#X connect 6 0 5 0;
#X connect 7 0 3 0;
#X connect 8 0 3 0;
#X connect 9 0 3 0;
