#N canvas 52 22 566 227 10;
#X obj 37 160 dac~;
#N canvas 0 22 450 300 (subpatch) 0;
#X array sample 44100 float 2;
#X coords 0 1 44100 -1 100 70 1 0 0;
#X restore 162 40 graph;
#X obj 48 119 tabread~ sample;
#X obj 48 67 phasor~ 1;
#X obj 48 92 *~ 44100;
#X obj 293 40 loadbang;
#X msg 293 64 read -resize guitar.wav sample;
#X obj 293 88 soundfiler;
#X floatatom 48 42 5 0 0 0 - - -;
#X connect 2 0 0 0;
#X connect 2 0 0 1;
#X connect 3 0 4 0;
#X connect 4 0 2 0;
#X connect 5 0 6 0;
#X connect 6 0 7 0;
#X connect 8 0 3 0;
