#N canvas 54 22 543 217 10;
#X obj 31 169 dac~;
#N canvas 0 22 450 300 (subpatch) 0;
#X array sample1 44100 float 2;
#X coords 0 1 44100 -1 100 70 1 0 0;
#X restore 173 39 graph;
#X obj 41 133 tabread~ sample1;
#X obj 41 107 line~;
#X msg 41 81 0 \, 44100 1000;
#X obj 300 92 soundfiler;
#X msg 300 66 read guitar.wav sample1;
#X obj 300 39 loadbang;
#X obj 41 55 metro 1000;
#X obj 41 33 tgl 15 0 empty empty empty 17 7 0 10 -262144 -1 -1 0 1
;
#X connect 2 0 0 0;
#X connect 2 0 0 1;
#X connect 3 0 2 0;
#X connect 4 0 3 0;
#X connect 6 0 5 0;
#X connect 7 0 6 0;
#X connect 8 0 4 0;
#X connect 9 0 8 0;
