#N canvas 53 22 809 385 10;
#N canvas 0 22 450 300 (subpatch) 0;
#X array sample 44100 float 2;
#X coords 0 1 44100 -1 100 70 1;
#X restore 563 194 graph;
#X obj 561 151 soundfiler;
#X obj 561 100 loadbang;
#X msg 561 125 read -resize guitar.wav sample;
#X obj 250 35 phasor~ 20;
#X floatatom 263 133 5 0 0 2 offset - -;
#X obj 143 107 +~ 0.5;
#X obj 143 133 wrap~;
#X obj 143 162 *~ 2205;
#X obj 143 192 +~;
#X obj 88 184 cos~;
#X obj 88 209 *~ 0.5;
#X obj 128 263 *~;
#X obj 143 218 tabread~ sample;
#X obj 425 104 *~ 2205;
#X obj 425 149 +~;
#X obj 318 125 cos~;
#X obj 318 156 *~ 0.5;
#X obj 318 213 *~;
#X obj 425 179 tabread~ sample;
#X obj 249 318 dac~;
#X obj 88 233 +~ 0.5;
#X obj 318 180 +~ 0.5;
#X obj 318 98 +~ 0.5;
#X obj 88 161 +~ 0.5;
#X connect 2 0 3 0;
#X connect 3 0 1 0;
#X connect 4 0 6 0;
#X connect 4 0 14 0;
#X connect 4 0 23 0;
#X connect 5 0 9 1;
#X connect 5 0 15 1;
#X connect 6 0 7 0;
#X connect 7 0 8 0;
#X connect 7 0 24 0;
#X connect 8 0 9 0;
#X connect 9 0 13 0;
#X connect 10 0 11 0;
#X connect 11 0 21 0;
#X connect 12 0 20 0;
#X connect 12 0 20 1;
#X connect 13 0 12 1;
#X connect 14 0 15 0;
#X connect 15 0 19 0;
#X connect 16 0 17 0;
#X connect 17 0 22 0;
#X connect 18 0 20 1;
#X connect 18 0 20 0;
#X connect 19 0 18 1;
#X connect 21 0 12 0;
#X connect 22 0 18 0;
#X connect 23 0 16 0;
#X connect 24 0 10 0;
