#N canvas 52 22 944 448 10;
#N canvas 0 22 450 300 (subpatch) 0;
#X array sample 44100 float 2;
#X coords 0 1 44100 -1 100 70 1 0 0;
#X restore 695 263 graph;
#X obj 696 216 soundfiler;
#X obj 696 168 loadbang;
#X msg 696 192 read -resize guitar.wav sample;
#X obj 316 73 phasor~ 20;
#X obj 147 126 +~ 0.5;
#X obj 147 151 wrap~;
#X obj 147 220 +~;
#X obj 78 211 cos~;
#X obj 78 236 *~ 0.5;
#X obj 131 296 *~;
#X obj 147 243 tabread~ sample;
#X obj 390 208 +~;
#X obj 316 184 cos~;
#X obj 316 217 *~ 0.5;
#X obj 316 274 *~;
#X obj 390 231 tabread~ sample;
#X obj 223 360 dac~;
#X obj 78 260 +~ 0.5;
#X obj 316 242 +~ 0.5;
#X obj 316 160 +~ 0.5;
#X obj 78 188 +~ 0.5;
#X obj 178 220 samphold~;
#X obj 416 209 samphold~;
#X msg 637 57 0 \, 44100 1000;
#X floatatom 586 110 5 0 0 2 offset - -;
#X msg 663 77 0 \, 44100 500;
#X msg 678 97 0 \, 44100 2000;
#X msg 697 118 0 \, 44100 10000;
#X floatatom 316 34 5 0 0 0 freq - -;
#X obj 485 86 expr 44100/$f1;
#X obj 485 134 samphold~;
#X obj 390 174 *~;
#X obj 223 178 samphold~;
#X obj 147 199 *~;
#X obj 637 151 line~;
#X connect 2 0 3 0;
#X connect 3 0 1 0;
#X connect 4 0 5 0;
#X connect 4 0 20 0;
#X connect 4 0 23 1;
#X connect 4 0 31 1;
#X connect 4 0 32 0;
#X connect 5 0 6 0;
#X connect 6 0 21 0;
#X connect 6 0 22 1;
#X connect 6 0 34 0;
#X connect 6 0 33 1;
#X connect 7 0 11 0;
#X connect 8 0 9 0;
#X connect 9 0 18 0;
#X connect 10 0 17 0;
#X connect 10 0 17 1;
#X connect 11 0 10 1;
#X connect 12 0 16 0;
#X connect 13 0 14 0;
#X connect 14 0 19 0;
#X connect 15 0 17 0;
#X connect 15 0 17 1;
#X connect 16 0 15 1;
#X connect 18 0 10 0;
#X connect 19 0 15 0;
#X connect 20 0 13 0;
#X connect 21 0 8 0;
#X connect 22 0 7 1;
#X connect 23 0 12 1;
#X connect 24 0 35 0;
#X connect 25 0 35 0;
#X connect 26 0 35 0;
#X connect 27 0 35 0;
#X connect 28 0 35 0;
#X connect 29 0 4 0;
#X connect 29 0 30 0;
#X connect 30 0 31 0;
#X connect 30 0 33 0;
#X connect 31 0 32 1;
#X connect 32 0 12 0;
#X connect 33 0 34 1;
#X connect 34 0 7 0;
#X connect 35 0 23 0;
#X connect 35 0 22 0;
