#N canvas 52 22 219 197 10;
#X obj 39 147 dac~;
#X obj 39 28 osc~ 440;
#X obj 39 109 *~;
#X msg 147 75 0.5;
#X msg 109 74 0;
#X obj 147 49 bng 15 250 50 0 empty empty empty 17 7 0 10 -262144 -1
-1;
#X obj 109 47 bng 15 250 50 0 empty empty empty 17 7 0 10 -262144 -1
-1;
#X connect 1 0 2 0;
#X connect 2 0 0 1;
#X connect 2 0 0 0;
#X connect 3 0 2 1;
#X connect 4 0 2 1;
#X connect 5 0 3 0;
#X connect 6 0 4 0;
