#N canvas 53 22 239 162 10;
#X obj 39 129 dac~;
#X obj 52 28 osc~ 440;
#X obj 52 89 *~;
#X msg 155 50 0.5;
#X msg 113 49 0;
#X connect 1 0 2 0;
#X connect 2 0 0 1;
#X connect 2 0 0 0;
#X connect 3 0 2 1;
#X connect 4 0 2 1;
