#N canvas 52 22 398 381 10;
#X obj 68 330 dac~;
#X obj 79 260 osc~ 440;
#X obj 79 293 *~;
#X obj 245 239 del 100;
#X obj 245 209 bng 15 250 50 0 empty empty empty 17 7 0 10 -262144
-1 -1;
#X obj 190 305 line~;
#X msg 245 266 0 10;
#X msg 190 266 0.5 10;
#X obj 245 178 metro 1000;
#X floatatom 302 150 5 0 0 0 - - -;
#X obj 245 153 tgl 15 0 empty empty empty 17 7 0 10 -262144 -1 -1 0
1;
#X obj 302 124 /;
#X floatatom 290 36 5 0 0 0 BPM - -;
#X msg 276 96 60000;
#X obj 290 62 t b f;
#X msg 20 226 880;
#X msg 79 222 440;
#X floatatom 123 123 5 0 0 0 - - -;
#X obj 123 89 + 1;
#X obj 123 20 bng 15 250 50 0 empty empty empty 17 7 0 10 -262144 -1
-1;
#X obj 123 57 f 0;
#X obj 123 154 sel 4;
#X msg 123 190 0;
#X floatatom 206 192 5 0 0 0 - - -;
#X obj 79 190 t b;
#X obj 20 168 sel 1;
#X connect 1 0 2 0;
#X connect 2 0 0 1;
#X connect 2 0 0 0;
#X connect 3 0 6 0;
#X connect 4 0 3 0;
#X connect 4 0 7 0;
#X connect 4 0 19 0;
#X connect 5 0 2 1;
#X connect 6 0 5 0;
#X connect 7 0 5 0;
#X connect 8 0 4 0;
#X connect 9 0 8 1;
#X connect 10 0 8 0;
#X connect 11 0 9 0;
#X connect 12 0 14 0;
#X connect 13 0 11 0;
#X connect 14 0 13 0;
#X connect 14 1 11 1;
#X connect 15 0 1 0;
#X connect 16 0 1 0;
#X connect 17 0 21 0;
#X connect 17 0 25 0;
#X connect 18 0 17 0;
#X connect 19 0 20 0;
#X connect 20 0 18 0;
#X connect 21 0 22 0;
#X connect 21 1 23 0;
#X connect 22 0 23 0;
#X connect 23 0 20 1;
#X connect 24 0 16 0;
#X connect 25 0 15 0;
#X connect 25 1 24 0;
