#N canvas 57 22 385 159 10;
#N canvas 323 222 626 356 (subpatch) 0;
#X array small_array 5 float 3;
#A 0 0 0 0 0.5 0;
#X coords 0 1 5 -1 100 70 2 0 0;
#X restore 47 34 graph;
#X obj 182 59 tabwrite small_array;
#X floatatom 182 35 5 0 0 0 - - -;
#X floatatom 299 35 5 0 0 0 - - -;
#X text 34 27 1;
#X text 34 58 0;
#X text 28 89 -1;
#X text 73 107 1;
#X text 53 107 0;
#X text 93 107 2;
#X text 112 107 3;
#X text 132 107 4;
#X connect 2 0 1 0;
#X connect 3 0 1 1;
