#N canvas 51 22 917 456 10;
#N canvas 0 22 450 300 (subpatch) 0;
#X array square 515 float 0;
#X coords 0 1 514 -1 100 70 1 0 0;
#X restore 510 131 graph;
#X obj 39 349 dac~;
#N canvas 0 22 450 300 (subpatch) 0;
#X array saw 515 float 0;
#X coords 0 1 514 -1 100 70 1 0 0;
#X restore 509 29 graph;
#N canvas 0 22 450 300 (subpatch) 0;
#X array triangle 515 float 0;
#X coords 0 1 514 -1 100 70 1 0 0;
#X restore 510 238 graph;
#X obj 510 364 soundfiler;
#X obj 39 113 tabosc4~ saw;
#X obj 155 112 tabosc4~ square;
#X obj 283 113 tabosc4~ triangle;
#X floatatom 155 61 5 0 0 0 - - -;
#X obj 39 160 *~;
#X obj 155 160 *~;
#X obj 283 160 *~;
#X floatatom 54 138 5 0 0 0 - - -;
#X floatatom 170 137 5 0 0 0 - - -;
#X floatatom 298 138 5 0 0 0 - - -;
#X obj 39 189 +~;
#X obj 39 215 +~;
#X obj 240 347 vline~;
#X obj 39 311 *~;
#X floatatom 263 245 5 0 0 2 attack - -;
#X floatatom 306 245 5 0 0 2 decay - -;
#X floatatom 352 245 5 0 0 2 sustain - -;
#X floatatom 403 246 5 0 0 2 release - -;
#X msg 240 316 \$1 \$2 \, \$4 \$3 \$2;
#X obj 358 288 pack 0 0;
#X obj 172 244 sel 1 0;
#X obj 172 223 tgl 15 0 empty empty empty 17 7 0 10 -262144 -1 -1 0
1;
#X obj 240 290 pack 1 0 0 0;
#X msg 510 324 read -resize saw.wav saw \, read -resize square.wav
square \, read -resize triangle.wav triangle;
#X connect 5 0 9 0;
#X connect 6 0 10 0;
#X connect 7 0 11 0;
#X connect 8 0 6 0;
#X connect 8 0 5 0;
#X connect 8 0 7 0;
#X connect 9 0 15 0;
#X connect 10 0 15 1;
#X connect 11 0 16 1;
#X connect 12 0 9 1;
#X connect 13 0 10 1;
#X connect 14 0 11 1;
#X connect 15 0 16 0;
#X connect 16 0 18 0;
#X connect 17 0 18 1;
#X connect 18 0 1 0;
#X connect 18 0 1 1;
#X connect 19 0 27 1;
#X connect 20 0 27 2;
#X connect 21 0 27 3;
#X connect 22 0 24 1;
#X connect 23 0 17 0;
#X connect 24 0 17 0;
#X connect 25 0 27 0;
#X connect 25 1 24 0;
#X connect 26 0 25 0;
#X connect 27 0 23 0;
#X connect 28 0 4 0;
