#N canvas 52 22 665 396 10;
#N canvas 0 22 450 300 (subpatch) 0;
#X array square 515 float 0;
#X coords 0 1 514 -1 100 70 1 0 0;
#X restore 473 123 graph;
#X obj 35 248 dac~;
#N canvas 0 22 450 300 (subpatch) 0;
#X array saw 515 float 0;
#X coords 0 1 514 -1 100 70 1 0 0;
#X restore 472 26 graph;
#N canvas 0 22 450 300 (subpatch) 0;
#X array triangle 515 float 0;
#X coords 0 1 514 -1 100 70 1 0 0;
#X restore 472 225 graph;
#X obj 34 328 soundfiler;
#X obj 44 89 tabosc4~ saw;
#X obj 171 88 tabosc4~ square;
#X obj 298 89 tabosc4~ triangle;
#X floatatom 171 32 5 0 0 0 - - -;
#X obj 44 133 *~;
#X obj 171 135 *~;
#X obj 298 136 *~;
#X floatatom 59 112 5 0 0 0 - - -;
#X floatatom 186 114 5 0 0 0 - - -;
#X floatatom 313 115 5 0 0 0 - - -;
#X obj 44 181 +~;
#X obj 44 212 +~;
#X msg 34 286 read -resize saw.wav saw \, read -resize square.wav square
\, read -resize triangle.wav triangle;
#X connect 5 0 9 0;
#X connect 6 0 10 0;
#X connect 7 0 11 0;
#X connect 8 0 6 0;
#X connect 8 0 5 0;
#X connect 8 0 7 0;
#X connect 9 0 15 0;
#X connect 10 0 15 1;
#X connect 11 0 16 1;
#X connect 12 0 9 1;
#X connect 13 0 10 1;
#X connect 14 0 11 1;
#X connect 15 0 16 0;
#X connect 16 0 1 1;
#X connect 16 0 1 0;
#X connect 17 0 4 0;
