#N canvas 111 22 459 226 10;
#X obj 90 35 keyname;
#X obj 227 23 sel z s x d c v g b h n j m;
#X obj 90 58 tgl 15 0 empty empty empty 17 7 0 10 -262144 -1 -1 0 1
;
#X msg 227 60 60;
#X msg 245 81 61;
#X msg 258 60 62;
#X msg 278 81 63;
#X msg 290 60 64;
#X msg 310 81 65;
#X msg 322 60 66;
#X msg 342 81 67;
#X msg 352 60 68;
#X msg 373 81 69;
#X msg 382 60 70;
#X msg 401 81 71;
#X obj 90 114 pack 0 0;
#X obj 90 79 * 100;
#X obj 90 137 swap;
#X floatatom 52 172 5 0 0 0 note - -;
#X floatatom 140 172 5 0 0 1 velocity - -;
#X connect 0 0 2 0;
#X connect 0 1 1 0;
#X connect 1 0 3 0;
#X connect 1 1 4 0;
#X connect 1 2 5 0;
#X connect 1 3 6 0;
#X connect 1 4 7 0;
#X connect 1 5 8 0;
#X connect 1 6 9 0;
#X connect 1 7 10 0;
#X connect 1 8 11 0;
#X connect 1 9 12 0;
#X connect 1 10 13 0;
#X connect 1 11 14 0;
#X connect 2 0 16 0;
#X connect 3 0 15 1;
#X connect 4 0 15 1;
#X connect 5 0 15 1;
#X connect 6 0 15 1;
#X connect 7 0 15 1;
#X connect 8 0 15 1;
#X connect 9 0 15 1;
#X connect 10 0 15 1;
#X connect 11 0 15 1;
#X connect 12 0 15 1;
#X connect 13 0 15 1;
#X connect 14 0 15 1;
#X connect 15 0 17 0;
#X connect 16 0 15 0;
#X connect 17 0 18 0;
#X connect 17 1 19 0;
