#N canvas 56 22 141 152 10;
#X obj 28 39 until;
#X msg 28 16 10;
#X obj 43 87 + 1;
#X obj 28 62 f;
#X obj 28 110 print b;
#X connect 0 0 3 0;
#X connect 1 0 0 0;
#X connect 2 0 3 1;
#X connect 3 0 2 0;
#X connect 3 0 4 0;
