#N canvas 53 22 973 484 10;
#N canvas 0 22 450 300 (subpatch) 0;
#X array square 515 float 0;
#X coords 0 1 514 -1 100 70 1 0 0;
#X restore 544 142 graph;
#X obj 58 447 dac~;
#N canvas 0 22 450 300 (subpatch) 0;
#X array saw 515 float 0;
#X coords 0 1 514 -1 100 70 1 0 0;
#X restore 543 40 graph;
#N canvas 0 22 450 300 (subpatch) 0;
#X array triangle 515 float 0;
#X coords 0 1 514 -1 100 70 1 0 0;
#X restore 546 244 graph;
#X obj 545 398 soundfiler;
#X obj 58 116 tabosc4~ saw;
#X obj 160 114 tabosc4~ square;
#X obj 283 114 tabosc4~ triangle;
#X floatatom 160 59 5 0 0 0 - - -;
#X obj 58 163 *~;
#X obj 160 161 *~;
#X obj 283 160 *~;
#X floatatom 73 142 5 0 0 0 - - -;
#X floatatom 175 140 5 0 0 0 - - -;
#X floatatom 298 140 5 0 0 0 - - -;
#X obj 58 211 +~;
#X obj 58 240 +~;
#X obj 212 375 vline~;
#X obj 58 405 *~;
#X floatatom 243 289 5 0 0 2 attack - -;
#X floatatom 284 290 5 0 0 2 decay - -;
#X floatatom 323 291 5 0 0 2 sustain - -;
#X floatatom 448 334 5 0 0 2 release - -;
#X msg 212 345 \$1 \$2 \, \$4 \$3 \$2;
#X obj 212 320 pack 0.5 0 0 0;
#X obj 387 16 notein;
#X obj 354 42 mtof;
#X obj 403 158 moses 1;
#X obj 212 251 / 127;
#X obj 403 358 pack 0 0;
#X obj 545 332 loadbang;
#X msg 545 358 read -resize saw.wav saw \, read -resize square.wav
square \, read -resize triangle.wav triangle;
#X connect 5 0 9 0;
#X connect 6 0 10 0;
#X connect 7 0 11 0;
#X connect 8 0 6 0;
#X connect 8 0 5 0;
#X connect 8 0 7 0;
#X connect 9 0 15 0;
#X connect 10 0 15 1;
#X connect 11 0 16 1;
#X connect 12 0 9 1;
#X connect 13 0 10 1;
#X connect 14 0 11 1;
#X connect 15 0 16 0;
#X connect 16 0 18 0;
#X connect 17 0 18 1;
#X connect 18 0 1 0;
#X connect 18 0 1 1;
#X connect 19 0 24 1;
#X connect 20 0 24 2;
#X connect 21 0 24 3;
#X connect 22 0 29 1;
#X connect 23 0 17 0;
#X connect 24 0 23 0;
#X connect 25 0 26 0;
#X connect 25 1 27 0;
#X connect 26 0 8 0;
#X connect 27 0 29 0;
#X connect 27 1 28 0;
#X connect 28 0 24 0;
#X connect 29 0 17 0;
#X connect 30 0 31 0;
#X connect 31 0 4 0;
